<svg width="42" height="36" viewBox="0 0 42 36" fill="none" xmlns="http://www.w3.org/2000/svg">
<path d="M39.6214 23.7862C36.6551 21.765 35.0276 20.6887 33.4526 19.6387C31.7989 18.5362 30.2239 17.4862 27.1789 15.4125L24.7639 13.785C25.4201 12.8137 26.0501 11.9212 26.6801 11.0025C27.8089 11.1337 28.7801 10.635 29.2264 9.63746C29.7251 8.53496 29.3576 7.32746 28.3339 6.61871C25.5251 4.70246 22.6639 2.73371 19.5401 0.607455C18.4901 -0.101295 17.1776 0.0562047 16.3376 1.0012C15.6551 1.7887 15.5501 2.83871 16.0489 3.73121L9.06637 13.9687C8.01637 13.8375 7.07137 14.31 6.59887 15.255C6.04762 16.3837 6.38887 17.6175 7.51762 18.3787C7.83262 18.5887 8.14762 18.825 8.46262 19.035L11.0089 20.7675C12.7414 21.9487 14.5001 23.1562 16.2326 24.3375C17.2301 25.02 18.5689 24.8887 19.3826 24.0225C20.1176 23.235 20.2226 22.1325 19.7239 21.1875L21.6401 18.3787C24.1864 20.1112 25.6039 21.0562 26.9689 21.9487C28.4126 22.8937 29.8826 23.8912 32.7439 25.8337L34.0039 26.7C34.8701 27.3037 35.7364 27.8812 36.6026 28.485C37.1276 28.8525 37.6789 29.0362 38.2301 29.0362C38.6501 29.0362 39.0701 28.9312 39.4901 28.7212C40.4351 28.2225 40.9864 27.3825 41.0126 26.3062C41.0389 25.2562 40.5664 24.4425 39.6214 23.7862ZM17.7289 2.18245C17.9389 1.9462 18.2276 1.91996 18.4901 2.10371C21.6139 4.22996 24.4751 6.17245 27.2839 8.11495C27.4676 8.21995 27.7039 8.48246 27.5464 8.84996C27.4151 9.13871 27.1526 9.21745 26.7589 9.13871C26.7326 9.13871 26.7064 9.13871 26.6539 9.11246L17.9389 3.17996C17.8864 3.12746 17.8601 3.04871 17.8076 2.99621C17.5451 2.70746 17.5189 2.4187 17.7289 2.18245ZM18.0701 22.7625C17.8601 22.9725 17.5714 22.9987 17.2826 22.815C15.5501 21.6337 13.7914 20.4262 12.0589 19.245L9.51262 17.5125C9.19762 17.3025 8.88262 17.0925 8.59387 16.8825C8.06887 16.515 8.20012 16.2 8.27887 16.0687C8.35762 15.9375 8.48887 15.6487 9.11887 15.8587C9.19762 15.885 9.27637 15.885 9.32887 15.9112L17.9651 21.8437L17.9914 21.87C18.0176 21.9225 18.0701 21.975 18.0964 22.0275C18.2801 22.2375 18.2801 22.5525 18.0701 22.7625ZM38.6501 27.0412C38.4139 27.1725 38.0989 27.2512 37.6526 26.9362C36.7864 26.3587 35.9201 25.755 35.0539 25.1775L33.7939 24.3112C30.9326 22.3425 29.4364 21.3712 27.9926 20.4C26.5489 19.455 25.0789 18.4575 22.2439 16.5412C22.1651 16.4887 22.0864 16.4362 21.9814 16.3837L21.8764 16.3312C21.7189 16.2525 21.5614 16.2 21.4039 16.2C21.1151 16.2 20.8264 16.3312 20.6426 16.5937L18.1751 20.2162L10.5626 15.045L17.6764 4.59746L25.2364 9.84746C24.5539 10.8187 23.8976 11.79 23.2414 12.7612L22.7164 13.5225C22.5851 13.7325 22.5326 13.9687 22.5589 14.205C22.5851 14.4412 22.7426 14.6512 22.9526 14.7825L26.1289 16.935C29.1739 19.0087 30.8276 20.1112 32.4289 21.1612C34.0039 22.2112 35.6314 23.2875 38.5976 25.3087C39.0964 25.65 39.2014 25.9125 39.2014 26.2275C39.1489 26.6212 39.0176 26.8575 38.6501 27.0412Z" fill="white"/>
<path d="M27.6512 27.1462C26.89 25.9125 25.7087 25.2825 24.1075 25.2825C19.4087 25.2825 14.6837 25.2825 9.98498 25.2825H4.49873C4.34123 25.2825 4.18373 25.2825 4.02623 25.2825C2.03123 25.4137 0.456227 26.9625 0.377477 28.8787C0.324977 30.2175 0.324977 31.6087 0.351227 32.9212C0.351227 33.4987 0.351227 34.0762 0.351227 34.6537V35.5725H28.2287V34.6537C28.2287 34.1287 28.2287 33.63 28.2287 33.105C28.2287 31.6875 28.2287 30.2175 28.2025 28.7737C28.2287 28.275 28.0187 27.7237 27.6512 27.1462ZM26.4175 33.105C26.4175 33.315 26.4175 33.525 26.4175 33.735H2.21498C2.21498 33.4462 2.21498 33.1837 2.21498 32.895C2.21498 31.53 2.18873 30.2437 2.24123 28.9312C2.29373 27.96 3.10748 27.1725 4.18373 27.0937C4.28873 27.0937 4.41998 27.0937 4.52498 27.0937H10.0112C14.71 27.0937 19.435 27.0937 24.1337 27.0937C25.0787 27.0937 25.6825 27.4087 26.1025 28.0912C26.365 28.5375 26.3912 28.7737 26.3912 28.8262C26.4175 30.2437 26.4175 31.7137 26.4175 33.105Z" fill="white"/>
</svg>
