<svg width="38" height="34" viewBox="0 0 38 34" fill="none" xmlns="http://www.w3.org/2000/svg">
<path d="M36.5185 22.5516C33.7888 20.6916 32.2911 19.7012 30.8418 18.735C29.3199 17.7204 27.8706 16.7542 25.0684 14.8458L22.8461 13.3481C23.45 12.4544 24.0297 11.633 24.6095 10.7876C25.6482 10.9084 26.542 10.4494 26.9526 9.53146C27.4116 8.5169 27.0734 7.40572 26.1313 6.7535C23.5466 4.9901 20.9136 3.17839 18.039 1.22174C17.0728 0.569519 15.8649 0.714456 15.0919 1.58408C14.4639 2.30876 14.3673 3.27501 14.8262 4.09632L8.40069 13.5172C7.43444 13.3964 6.56482 13.8313 6.13001 14.7009C5.62273 15.7396 5.93676 16.8749 6.97547 17.5755C7.26535 17.7687 7.55522 17.9861 7.84509 18.1794L10.1882 19.7737C11.7825 20.8607 13.401 21.9719 14.9953 23.0589C15.9133 23.687 17.1452 23.5662 17.8941 22.769C18.5704 22.0444 18.6671 21.0298 18.2081 20.1602L19.9715 17.5755C22.3146 19.1698 23.6191 20.0394 24.8752 20.8607C26.2038 21.7303 27.5565 22.6483 30.1896 24.4358L31.349 25.233C32.1462 25.7886 32.9434 26.32 33.7405 26.8756C34.2236 27.2138 34.7309 27.3829 35.2382 27.3829C35.6247 27.3829 36.0112 27.2862 36.3977 27.093C37.2673 26.634 37.7746 25.861 37.7987 24.8706C37.8229 23.9044 37.3881 23.1555 36.5185 22.5516ZM16.3722 2.67111C16.5655 2.4537 16.8312 2.42954 17.0728 2.59864C19.9473 4.55529 22.5804 6.34284 25.1651 8.1304C25.3342 8.22703 25.5516 8.46859 25.4066 8.80677C25.2858 9.07249 25.0443 9.14496 24.6819 9.07249C24.6578 9.07249 24.6336 9.07249 24.5853 9.04834L16.5655 3.58904C16.5172 3.54073 16.493 3.46826 16.4447 3.41995C16.2031 3.15423 16.179 2.88851 16.3722 2.67111ZM16.6863 21.6095C16.493 21.8028 16.2273 21.827 15.9616 21.6579C14.3673 20.5708 12.7488 19.4596 11.1545 18.3726L8.81134 16.7783C8.52147 16.5851 8.23159 16.3918 7.96587 16.1986C7.48275 15.8604 7.60353 15.5705 7.676 15.4497C7.74847 15.3289 7.86925 15.0632 8.449 15.2565C8.52147 15.2806 8.59393 15.2806 8.64225 15.3048L16.5896 20.7641L16.6138 20.7882C16.6379 20.8365 16.6863 20.8849 16.7104 20.9332C16.8795 21.1264 16.8795 21.4163 16.6863 21.6095ZM35.6247 25.547C35.4073 25.6678 35.1174 25.7402 34.7068 25.4504C33.9096 24.9189 33.1124 24.3633 32.3153 23.8319L31.1558 23.0348C28.5228 21.223 27.1459 20.3293 25.8173 19.4355C24.4887 18.5659 23.136 17.6479 20.5271 15.8845C20.4546 15.8362 20.3821 15.7879 20.2855 15.7396L20.1889 15.6913C20.044 15.6188 19.899 15.5705 19.7541 15.5705C19.4884 15.5705 19.2227 15.6913 19.0536 15.9328L16.7829 19.2664L9.77759 14.5076L16.3239 4.89347L23.2809 9.72471C22.6528 10.6185 22.0489 11.5123 21.445 12.406L20.9619 13.1066C20.8411 13.2998 20.7928 13.5172 20.817 13.7346C20.8411 13.952 20.9861 14.1453 21.1793 14.2661L24.1022 16.2469C26.9043 18.1552 28.4262 19.1698 29.8997 20.136C31.349 21.1023 32.8467 22.0927 35.5764 23.9527C36.0353 24.2667 36.132 24.5083 36.132 24.7982C36.0837 25.1605 35.9629 25.3779 35.6247 25.547Z" fill="white"/>
<path d="M25.503 25.6438C24.8025 24.5085 23.7155 23.9287 22.2419 23.9287C17.918 23.9287 13.5699 23.9287 9.24593 23.9287H4.19729C4.05235 23.9287 3.90741 23.9287 3.76248 23.9287C1.92661 24.0495 0.477238 25.4747 0.404769 27.2381C0.356457 28.4701 0.356457 29.7503 0.380613 30.9582C0.380613 31.4896 0.380613 32.021 0.380613 32.5525V33.3979H26.0345V32.5525C26.0345 32.0693 26.0345 31.6104 26.0345 31.1272C26.0345 29.8228 26.0345 28.4701 26.0103 27.1415C26.0345 26.6825 25.8412 26.1752 25.503 25.6438ZM24.3677 31.1272C24.3677 31.3205 24.3677 31.5137 24.3677 31.707H2.0957C2.0957 31.4413 2.0957 31.1997 2.0957 30.934C2.0957 29.6779 2.07155 28.4942 2.11986 27.2864C2.16817 26.3926 2.91701 25.668 3.90741 25.5955C4.00404 25.5955 4.12482 25.5955 4.22144 25.5955H9.27009C13.594 25.5955 17.9422 25.5955 22.2661 25.5955C23.1357 25.5955 23.6913 25.8854 24.0778 26.5134C24.3194 26.9241 24.3435 27.1415 24.3435 27.1898C24.3677 28.4942 24.3677 29.847 24.3677 31.1272Z" fill="white"/>
</svg>
