<svg width="35" height="35" viewBox="0 0 35 35" fill="none" xmlns="http://www.w3.org/2000/svg">
<path d="M18.513 17.43C17.867 18.41 17.238 19.355 16.592 20.335C16.626 20.3875 16.677 20.44 16.711 20.4925C17.034 20.93 17.017 21.5075 16.677 21.8925C16.337 22.2775 15.776 22.33 15.317 22.015C13.634 20.8425 11.951 19.6525 10.268 18.4625C9.94497 18.235 9.62197 18.0075 9.29897 17.78C8.78897 17.4125 8.63597 16.8875 8.87397 16.38C9.12897 15.8725 9.62197 15.6975 10.217 15.89C10.251 15.9075 10.268 15.9075 10.285 15.9075C12.053 13.2475 13.804 10.5875 15.572 7.91004C15.572 7.91004 15.555 7.87504 15.521 7.85754C15.13 7.40254 15.113 6.84254 15.47 6.42254C15.81 6.00254 16.371 5.93254 16.83 6.26504C18.853 7.68254 20.876 9.10004 22.899 10.5175C23.358 10.85 23.511 11.375 23.307 11.8475C23.086 12.3375 22.61 12.5475 22.032 12.4075C21.947 12.39 21.794 12.4075 21.76 12.4775C21.148 13.3875 20.536 14.2975 19.907 15.2425C20.655 15.7675 21.369 16.275 22.083 16.765C26.214 19.67 26.52 19.7925 30.668 22.6975C31.093 22.995 31.365 23.3625 31.348 23.8875C31.331 24.4125 31.093 24.7975 30.651 25.0425C30.175 25.2875 29.733 25.2175 29.308 24.92C28.424 24.3075 27.54 23.6775 26.656 23.065C22.729 20.3 22.627 20.3175 18.683 17.5525C18.666 17.5175 18.581 17.465 18.513 17.43Z" fill="#F97A1C"/>
<path d="M4.64098 29.8726C4.64098 28.5076 4.60698 27.1426 4.65798 25.7951C4.70898 24.7451 5.55898 23.9401 6.57898 23.8701C6.66398 23.8701 6.76598 23.8701 6.85098 23.8701C11.356 23.8701 15.861 23.8701 20.366 23.8701C21.182 23.8701 21.845 24.1676 22.27 24.8851C22.423 25.1476 22.559 25.4451 22.559 25.7426C22.593 27.1076 22.576 28.4901 22.576 29.8901C16.609 29.8726 10.642 29.8726 4.64098 29.8726Z" fill="#F97A1C"/>
</svg>
