<svg width="34" height="35" viewBox="0 0 34 35" fill="none" xmlns="http://www.w3.org/2000/svg">
<path d="M17.068 18.865C19.482 18.865 21.454 16.835 21.454 14.35C21.454 11.8475 19.482 9.79999 17.068 9.81749C14.62 9.81749 12.665 11.8475 12.648 14.3675C12.665 16.835 14.637 18.8475 17.068 18.865Z" fill="#F97A1C"/>
<path d="M17.085 6.93018C11.101 6.93018 6.22198 11.9527 6.22198 18.1127C6.22198 24.2727 11.101 29.2952 17.085 29.2952C23.069 29.2952 27.948 24.2727 27.948 18.1127C27.948 11.9527 23.069 6.93018 17.085 6.93018ZM17.085 8.15518C22.423 8.15518 26.758 12.6177 26.758 18.1127C26.758 20.3177 26.044 22.3652 24.854 24.0277C23.919 23.0127 21.352 20.7027 17.153 20.7027C12.971 20.7027 10.268 22.9952 9.28198 24.0102C8.09198 22.3652 7.39499 20.3177 7.39499 18.1127C7.41199 12.6352 11.747 8.15518 17.085 8.15518Z" fill="#F97A1C"/>
</svg>
