<svg width="44" height="44" viewBox="0 0 44 44" fill="none" xmlns="http://www.w3.org/2000/svg">
<circle cx="22" cy="22" r="22" fill="#575757"/>
<path d="M22.0001 32.0847C19.4657 32.0847 16.9489 32.0847 14.4145 32.0847C11.8977 32.0847 10.1201 30.307 10.1201 27.7902C10.1201 24.7278 10.1201 21.6478 10.1201 18.5854C10.1201 16.0862 11.8801 14.3086 14.3793 14.291C15.1009 14.291 15.8401 14.2734 16.5617 14.291C16.7729 14.291 16.9137 14.2382 17.0017 14.027C17.1073 13.763 17.2481 13.499 17.3889 13.2526C17.9169 12.3902 18.6913 11.915 19.7121 11.915C21.2081 11.8974 22.7217 11.915 24.2177 11.915C25.3265 11.915 26.2065 12.3902 26.6289 13.3934C26.9633 14.1678 27.4033 14.379 28.1777 14.291C28.7057 14.2206 29.2337 14.2734 29.7617 14.291C32.0497 14.3438 33.8273 16.139 33.8449 18.427C33.8625 21.595 33.8625 24.763 33.8449 27.931C33.8273 30.2542 32.0321 32.067 29.7089 32.067C27.1393 32.0847 24.5697 32.0847 22.0001 32.0847ZM21.9825 30.9055C24.4993 30.9055 27.0161 30.9055 29.5329 30.9055C31.4161 30.9055 32.6657 29.6559 32.6657 27.7727C32.6657 24.7102 32.6657 21.6654 32.6657 18.603C32.6657 18.3918 32.6657 18.163 32.6129 17.9518C32.3313 16.4558 31.1697 15.5054 29.5681 15.4878C28.6881 15.4702 27.8257 15.4702 26.9457 15.4878C26.5057 15.5054 26.2417 15.3294 26.0657 14.9422C25.9249 14.5902 25.7313 14.2734 25.5553 13.939C25.2737 13.411 24.8337 13.1294 24.2529 13.1294C22.7217 13.1118 21.2081 13.1118 19.6769 13.1294C19.0785 13.1294 18.6209 13.4286 18.3569 13.9566C18.1809 14.291 18.0049 14.643 17.8465 14.995C17.6881 15.347 17.4417 15.5054 17.0369 15.4878C16.1569 15.4702 15.2945 15.4702 14.4145 15.4878C12.5665 15.4878 11.3345 16.7198 11.3169 18.6206C11.3169 21.6655 11.3169 24.7102 11.3169 27.755C11.3169 27.9838 11.3169 28.2303 11.3697 28.4415C11.6513 29.9551 12.8305 30.8879 14.4145 30.9055C16.9313 30.9055 19.4657 30.9055 21.9825 30.9055Z" fill="white"/>
<path d="M27.9311 22.6161C27.8783 25.9425 25.2031 28.6001 21.9823 28.5297C18.6383 28.4769 16.0511 25.8369 16.0863 22.5281C16.1215 19.2369 18.8143 16.6145 22.1231 16.6673C25.3263 16.7025 27.9663 19.4129 27.9311 22.6161ZM22.0175 27.3329C24.6047 27.3329 26.7519 25.1857 26.7519 22.5985C26.7519 19.9761 24.6223 17.8465 22.0175 17.8289C19.3951 17.8289 17.2479 19.9761 17.2479 22.5985C17.2479 25.2033 19.3951 27.3329 22.0175 27.3329Z" fill="white"/>
</svg>
