<svg width="34" height="34" viewBox="0 0 34 34" fill="none" xmlns="http://www.w3.org/2000/svg">
<path d="M12.002 8.46578C12.155 8.46578 12.308 8.44878 12.461 8.46578C12.92 8.49978 13.277 8.85678 13.277 9.31578C13.277 9.77478 12.937 10.1828 12.461 10.1828C11.56 10.1998 10.676 10.1998 9.77499 10.1828C9.33299 10.1658 8.97599 9.80878 8.97599 9.36678C8.95899 8.48278 8.95899 7.59878 8.97599 6.71478C8.97599 6.23878 9.36699 5.88178 9.82599 5.88178C10.285 5.88178 10.659 6.23878 10.693 6.71478C10.693 6.85078 10.693 6.98678 10.693 7.17378C10.897 7.05478 11.067 6.95278 11.237 6.85078C17.51 2.94078 25.823 5.59278 28.696 12.3928C31.144 18.2068 28.747 24.8708 23.12 27.7948C17.595 30.6678 10.727 28.7978 7.39499 23.5278C6.20499 21.6238 5.59299 19.5498 5.52499 17.3058C5.50799 16.6258 5.83099 16.2348 6.37499 16.2178C6.90199 16.2178 7.22499 16.6088 7.24199 17.2718C7.30999 21.4028 9.89399 25.1598 13.719 26.6898C19.975 29.1888 26.86 25.2278 27.829 18.5638C28.662 12.9028 24.718 7.66678 19.023 6.86778C16.575 6.52778 14.297 7.02078 12.189 8.29578C12.121 8.32978 12.053 8.38078 11.985 8.43178C11.985 8.43178 12.002 8.44878 12.002 8.46578Z" fill="white"/>
<path d="M16.728 14.926C16.728 14.246 16.728 13.549 16.728 12.869C16.728 12.308 17.085 11.917 17.578 11.917C18.088 11.917 18.445 12.308 18.445 12.869C18.445 14.042 18.445 15.198 18.445 16.371C18.445 16.558 18.496 16.66 18.649 16.762C19.295 17.187 19.924 17.612 20.57 18.037C21.046 18.36 21.148 18.853 20.876 19.278C20.604 19.686 20.094 19.771 19.635 19.465C18.802 18.921 17.969 18.36 17.136 17.799C16.864 17.612 16.745 17.34 16.745 17.017C16.728 16.32 16.728 15.623 16.728 14.926Z" fill="white"/>
</svg>
