<svg width="52" height="52" viewBox="0 0 52 52" fill="none" xmlns="http://www.w3.org/2000/svg">
<g clip-path="url(#clip0_0_4)">
<ellipse cx="26.1125" cy="27.575" rx="23.0625" ry="18.45" fill="#161616"/>
<path d="M16.7645 22.9012C16.7645 21.6712 15.965 20.9947 14.5505 20.9947H11.66V24.7462H14.5505C15.965 24.7462 16.7645 24.1312 16.7645 22.9012Z" fill="#F97A1C"/>
<path d="M14.7965 27.9442H11.66V31.9417H14.858C16.334 31.9417 17.1335 31.2652 17.1335 29.9737C17.195 28.6822 16.2725 27.9442 14.7965 27.9442Z" fill="#F97A1C"/>
<path d="M38.105 21.2407H36.014V31.6342H38.105C41.426 31.6342 43.3325 29.7277 43.3325 26.4682C43.3325 23.2087 41.3645 21.2407 38.105 21.2407Z" fill="#F97A1C"/>
<path d="M26.174 -0.0997654C11.2295 -0.161265 -0.0250015 11.9542 -0.0250015 25.9147C-0.0250015 40.3672 11.4755 51.9907 25.9895 52.0522C39.95 52.1752 52.127 41.0437 52.1885 26.0377C52.25 11.5852 40.8725 -0.0382654 26.174 -0.0997654ZM15.6575 35.4472H7.2935V17.4892H15.35C18.9785 17.4892 21.1925 19.2727 21.1925 22.1632C21.1925 24.3157 19.901 25.7302 18.179 26.2222C20.27 26.6527 21.623 28.4977 21.623 30.5272C21.5615 33.5407 19.409 35.4472 15.6575 35.4472ZM28.511 35.4472H24.1445V17.4892H28.511V35.4472ZM38.351 35.4472H31.6475V17.4892H38.351C44.0705 17.4892 47.7605 21.1177 47.7605 26.4682C47.7605 31.7572 44.0705 35.4472 38.351 35.4472Z" fill="#F97A1C"/>
</g>
<defs>
<clipPath id="clip0_0_4">
<rect width="52" height="52" fill="white"/>
</clipPath>
</defs>
</svg>
