<svg width="34" height="35" viewBox="0 0 34 35" fill="none" xmlns="http://www.w3.org/2000/svg">
<path d="M17 18.865C19.414 18.865 21.386 16.835 21.386 14.35C21.386 11.8475 19.414 9.81755 17 9.81755V11.0425C18.751 11.0425 20.196 12.53 20.196 14.3675C20.196 15.2425 19.856 16.065 19.261 16.695C18.649 17.325 17.85 17.6575 17 17.6575C16.133 17.6575 15.334 17.3075 14.722 16.695C14.11 16.0475 13.77 15.225 13.77 14.35C13.77 12.495 15.181 11.0425 17 11.025V9.80005C14.535 9.80005 12.58 11.83 12.58 14.35C12.58 16.835 14.552 18.8475 17 18.865Z" fill="white"/>
<path d="M17 6.92993C11.016 6.92993 6.13702 11.9524 6.13702 18.1124C6.13702 24.2724 11.016 29.2949 17 29.2949C22.984 29.2949 27.863 24.2724 27.863 18.1124C27.863 11.9524 22.984 6.92993 17 6.92993ZM17 8.15493C22.338 8.15493 26.673 12.6174 26.673 18.1124C26.673 20.1074 26.095 21.9449 25.126 23.5024C24.072 22.3824 21.386 20.0899 17.085 20.0899C12.784 20.0899 9.99602 22.3824 8.87402 23.5024C7.90502 21.9449 7.32702 20.0899 7.32702 18.1124C7.32702 12.6349 11.662 8.15493 17 8.15493ZM17 28.0874C14.025 28.0874 11.373 26.7049 9.58802 24.5174C10.455 23.6074 13.056 21.3324 17.085 21.3324C21.131 21.3324 23.613 23.6424 24.412 24.5174C22.627 26.6874 19.975 28.0874 17 28.0874Z" fill="white"/>
</svg>
