<svg width="34" height="34" viewBox="0 0 34 34" fill="none" xmlns="http://www.w3.org/2000/svg">
<path d="M17.578 9.33307C21.879 9.35007 25.347 12.8351 25.33 17.1361C25.313 21.4031 21.811 24.8541 17.527 24.8201C13.243 24.8031 9.80899 21.3011 9.82599 17.0001C9.85999 12.7841 13.345 9.31607 17.578 9.33307ZM16.728 14.9261C16.728 15.6231 16.728 16.3201 16.728 17.0171C16.728 17.3401 16.847 17.6121 17.136 17.7991C17.969 18.3601 18.802 18.9211 19.635 19.4651C20.094 19.7711 20.621 19.6691 20.876 19.2611C21.148 18.8361 21.029 18.3431 20.57 18.0371C19.958 17.6121 19.329 17.2041 18.7 16.7961C18.513 16.6771 18.428 16.5411 18.428 16.3031C18.445 15.1641 18.445 14.0081 18.428 12.8691C18.428 12.3081 18.071 11.9171 17.561 11.9171C17.051 11.9171 16.711 12.3081 16.711 12.8691C16.728 13.5661 16.728 14.2461 16.728 14.9261Z" fill="#F97A1C"/>
<path d="M11.917 8.46602C12.155 8.46602 12.308 8.46602 12.444 8.46602C12.92 8.50002 13.277 8.85702 13.277 9.31602C13.277 9.77502 12.92 10.166 12.444 10.166C11.56 10.2 10.676 10.2 9.80899 10.183C9.34999 10.183 8.99299 9.82602 8.99299 9.35002C8.97599 8.46602 8.97599 7.58202 8.99299 6.69802C8.99299 6.22202 9.40099 5.86502 9.85999 5.86502C10.319 5.86502 10.693 6.22202 10.71 6.69802C10.71 6.83402 10.71 6.95302 10.71 7.12302C11.169 6.85102 11.594 6.59602 12.036 6.35802C17.833 3.28102 25.177 5.55902 28.237 11.356C31.144 16.864 29.495 23.511 24.344 27.03C19.023 30.668 11.577 29.342 7.81999 24.072C6.34099 22.015 5.59299 19.703 5.54199 17.17C5.52499 16.575 5.86499 16.184 6.37499 16.167C6.90199 16.15 7.24199 16.541 7.25899 17.17C7.34399 22.389 11.186 26.673 16.388 27.319C22.015 28.016 27.217 23.936 27.863 18.326C28.509 12.631 24.667 7.63302 19.023 6.81702C16.575 6.46002 14.297 6.97002 12.189 8.24502C12.104 8.33002 12.053 8.38102 11.917 8.46602Z" fill="#F97A1C"/>
</svg>
