<svg width="49" height="48" viewBox="0 0 49 48" fill="none" xmlns="http://www.w3.org/2000/svg">
<path d="M35.0838 21.6002C35.0838 21.0722 35.1083 20.5922 35.0838 20.1122C35.0348 18.9122 34.2753 18.0482 33.0993 17.8322C32.0703 17.6402 30.9678 18.2402 30.5513 19.2242C30.4288 19.5362 30.3798 19.8722 30.3553 20.2082C30.3308 20.6642 30.3553 21.1202 30.3553 21.6002C30.2083 21.6002 30.0858 21.6242 29.9633 21.6242C26.9743 21.6242 23.9853 21.6242 20.9963 21.6242C20.7268 21.6242 20.6043 21.5522 20.4573 21.3362C19.9918 20.5202 19.5018 19.7042 19.0363 18.9122C18.2033 17.4722 16.4393 17.4482 15.5818 18.8642C15.0918 19.6802 14.6018 20.4962 14.1363 21.3362C14.0138 21.5522 13.8668 21.6482 13.5973 21.6482C12.9603 21.6242 12.3233 21.6482 11.6863 21.6482C11.1718 21.6482 10.9268 21.4322 10.9268 20.9042C10.9268 17.0162 10.9268 13.1282 10.9268 9.24017C10.9268 8.68817 11.1473 8.47217 11.7353 8.47217C20.6288 8.47217 29.5468 8.47217 38.4403 8.47217C39.0038 8.47217 39.2243 8.68817 39.2243 9.21617C39.2243 13.1042 39.2243 16.9922 39.2243 20.8802C39.2243 21.4322 39.0038 21.6242 38.4648 21.6482C37.3378 21.6002 36.2598 21.6002 35.0838 21.6002ZM20.2613 15.0242C20.2613 17.6642 22.4663 19.8242 25.1613 19.8002C27.8073 19.8002 30.0123 17.6162 29.9878 15.0242C29.9878 12.3842 27.8073 10.2482 25.1123 10.2482C22.4418 10.2722 20.2613 12.3842 20.2613 15.0242ZM37.4113 18.9602C37.4113 18.5042 36.9948 18.0962 36.5538 18.1202C36.1128 18.1202 35.7208 18.5042 35.6963 18.9362C35.6963 19.3922 36.0883 19.8002 36.5293 19.8002C36.9703 19.8002 37.4113 19.3922 37.4113 18.9602ZM12.6173 11.0882C12.6173 11.5442 13.0093 11.9282 13.4748 11.9282C13.9403 11.9282 14.3323 11.5202 14.3323 11.0642C14.3323 10.6082 13.9403 10.2482 13.4993 10.2482C12.9848 10.2482 12.6173 10.6082 12.6173 11.0882ZM37.3868 11.0882C37.3868 10.6322 36.9948 10.2722 36.5048 10.2722C36.0393 10.2962 35.6718 10.6562 35.6718 11.0882C35.6718 11.5442 36.0638 11.9282 36.5293 11.9282C37.0193 11.9282 37.4113 11.5442 37.3868 11.0882ZM12.6173 18.9602C12.6173 19.4162 13.0338 19.8242 13.4748 19.8002C13.9403 19.7762 14.3323 19.3682 14.3078 18.9362C14.2833 18.5042 13.8913 18.1202 13.4503 18.1202C13.0093 18.0962 12.6173 18.5042 12.6173 18.9602Z" fill="#575757"/>
<path d="M24.9898 41.2079C20.8003 41.2079 16.6108 41.2079 12.4458 41.2079C11.1228 41.2079 10.3633 40.4639 10.3633 39.1679C10.3633 34.7519 10.3633 30.3359 10.3633 25.9439C10.3633 24.7439 11.1473 23.9759 12.3723 23.9519C12.5928 23.9519 12.8133 23.9999 13.0093 23.9519C13.7443 23.7839 14.2588 24.2159 14.7488 24.5759C14.8958 24.6719 14.9203 25.0079 14.8713 25.1999C14.8468 25.3199 14.6018 25.4639 14.4303 25.4879C13.7688 25.5119 13.1073 25.5119 12.4458 25.4879C12.0783 25.4879 11.9313 25.6079 11.9313 25.9919C11.9313 30.3839 11.9313 34.7759 11.9313 39.1919C11.9313 39.5999 12.0293 39.6719 12.5438 39.6719C19.7713 39.6719 27.0233 39.6719 34.2508 39.6719C34.5938 39.6719 34.9123 39.6719 35.2553 39.6719C35.5738 39.6719 35.7453 39.5039 35.7453 39.1919C35.7453 39.0959 35.7453 38.9759 35.7453 38.8799C35.7453 35.0399 35.7453 31.1759 35.7453 27.3359C35.7453 27.0959 35.8188 26.8079 35.9413 26.6159C36.4068 25.8719 36.6518 25.1519 36.2108 24.3119C36.1863 24.2639 36.3333 23.9999 36.4068 23.9999C36.9948 23.9999 37.6073 23.9519 38.1953 24.0719C39.0528 24.2399 39.6163 24.9599 39.6163 25.8239C39.6163 30.3599 39.6163 34.8719 39.6163 39.4079C39.6163 40.4879 38.7833 41.2559 37.6808 41.2559C33.4668 41.2079 29.2283 41.2079 24.9898 41.2079ZM37.6808 33.5759C38.2933 33.5999 38.7833 33.1439 38.8078 32.5439C38.8323 31.9439 38.3423 31.4399 37.7298 31.4399C37.1418 31.4399 36.6518 31.8959 36.6273 32.4479C36.6028 33.1199 37.0193 33.5519 37.6808 33.5759Z" fill="#575757"/>
<path d="M19.3062 32.6638C19.3062 29.5438 21.8052 27.0718 24.9657 27.0718C28.1507 27.0718 30.7232 29.5438 30.7232 32.6158C30.7232 35.6878 28.1752 38.2318 25.0637 38.2318C21.8542 38.2318 19.3062 35.7838 19.3062 32.6638ZM25.5292 30.2158C25.5782 30.1918 25.6027 30.1918 25.6517 30.1678C25.7252 30.3358 25.8232 30.5038 25.8967 30.6958C25.9947 30.9838 26.1662 31.1758 26.5092 31.1038C26.8277 31.0318 26.9747 30.7678 26.9257 30.4078C26.8277 29.7358 26.4112 29.3518 25.8232 29.0878C25.7007 29.0398 25.5537 28.8958 25.5047 28.7758C25.4067 28.5118 25.2842 28.3678 24.9902 28.3918C24.7207 28.3918 24.5982 28.5358 24.5247 28.7758C24.5002 28.8958 24.3777 29.0398 24.2552 29.0878C23.7407 29.3518 23.3487 29.6878 23.2017 30.2398C22.9812 31.1278 23.2997 31.8478 24.1327 32.3518C24.2552 32.4478 24.4757 32.5678 24.4757 32.6638C24.5002 33.3358 24.5002 34.0078 24.5002 34.7038C24.0592 34.5118 23.8632 34.2478 23.7407 33.8878C23.6427 33.5758 23.3977 33.4558 23.0792 33.5278C22.7852 33.5998 22.6382 33.8158 22.6872 34.1278C22.7117 34.3198 22.7607 34.5118 22.8342 34.6798C23.1282 35.2318 23.5937 35.5678 24.1817 35.7598C24.3777 35.8318 24.5002 35.8798 24.5002 36.1198C24.5002 36.4078 24.6962 36.5758 24.9902 36.5518C25.2597 36.5518 25.4557 36.4078 25.4557 36.1198C25.4557 35.8798 25.5782 35.8318 25.7742 35.7598C26.5827 35.4958 27.0727 34.9438 27.1952 34.1038C27.3177 33.2878 26.9747 32.6878 26.3377 32.2318C26.1417 32.0878 25.8967 31.9918 25.7007 31.8478C25.6027 31.7998 25.4802 31.7038 25.4802 31.6078C25.5292 31.1518 25.5292 30.6718 25.5292 30.2158Z" fill="#575757"/>
<path d="M16.4883 23.1119C16.1208 23.1119 15.8023 23.1119 15.4838 23.1119C15.1408 23.0879 14.9938 22.8959 15.1898 22.5839C15.7778 21.5759 16.3658 20.5439 16.9783 19.5599C17.1498 19.2719 17.4193 19.2719 17.5663 19.5359C18.1788 20.5679 18.7913 21.5999 19.4038 22.6319C19.5508 22.8959 19.4038 23.0879 19.0853 23.0879C18.7668 23.1119 18.4238 23.0879 18.0563 23.0879C18.0563 23.2799 18.0563 23.4239 18.0563 23.5439C18.0563 24.9359 18.0563 26.3519 18.0563 27.7439C18.0563 28.3679 17.5908 28.7519 17.0273 28.5599C16.6843 28.4639 16.4883 28.1519 16.4883 27.6479C16.4883 26.2799 16.4883 24.8879 16.4883 23.5199C16.4883 23.4239 16.4883 23.2799 16.4883 23.1119Z" fill="#575757"/>
<path d="M31.9236 24.8882C31.9236 23.4242 31.9236 22.0322 31.9236 20.6162C31.9236 20.4482 31.9236 20.3042 31.9236 20.1362C31.9481 19.6562 32.2421 19.3442 32.7076 19.3442C33.1486 19.3442 33.4916 19.6802 33.4916 20.1602C33.4916 20.8562 33.4916 21.5282 33.4916 22.2242C33.4916 23.0882 33.4916 23.9522 33.4916 24.8882C33.8346 24.8882 34.1286 24.8882 34.4226 24.8882C34.8391 24.8882 34.9616 25.1042 34.7656 25.4642C34.2021 26.4242 33.6386 27.4082 33.0506 28.3682C32.8301 28.7282 32.5851 28.7522 32.3646 28.3922C31.7766 27.4082 31.2131 26.4482 30.6251 25.4642C30.4291 25.1042 30.5516 24.9122 30.9926 24.8882C31.2866 24.8882 31.5806 24.8882 31.9236 24.8882Z" fill="#575757"/>
<path d="M24.3528 25.4879C22.9808 25.4879 21.5843 25.4879 20.2123 25.4879C19.9918 25.4879 19.6978 25.5599 19.6733 25.2479C19.6488 24.9599 19.5263 24.5999 19.9673 24.4559C20.0408 24.4319 20.0898 24.4079 20.1388 24.3599C20.5308 23.8559 21.1188 23.9279 21.6578 23.9279C24.0343 23.9279 26.4108 23.9279 28.7873 23.9279C29.2773 23.9279 29.3018 23.9759 29.1303 24.4079C29.0568 24.6239 28.9833 24.8639 28.9833 25.0799C28.9833 25.3919 28.8363 25.4639 28.5423 25.4639C27.1458 25.4879 25.7493 25.4879 24.3528 25.4879Z" fill="#575757"/>
<path d="M25.4799 12.9118C25.4799 13.3198 25.4554 13.7038 25.4799 14.1118C25.4799 14.2318 25.6024 14.3518 25.7004 14.4238C25.8964 14.5678 26.1169 14.6638 26.3129 14.8078C26.9499 15.2398 27.1949 15.8638 27.0479 16.6078C26.9009 17.3278 26.4599 17.7838 25.7739 18.0238C25.6759 18.0478 25.6024 18.0718 25.5044 18.1198C25.5044 18.2158 25.5289 18.3358 25.4799 18.3838C25.3574 18.5038 25.2349 18.6718 25.0634 18.7198C24.8429 18.7678 24.6224 18.6478 24.6224 18.3838C24.6224 18.1198 24.4999 18.0718 24.2794 17.9998C23.6914 17.7838 23.2014 17.4478 22.9809 16.8238C22.9319 16.6558 22.8829 16.4398 22.9564 16.2958C23.0299 16.1518 23.2504 16.0078 23.3974 16.0078C23.5444 16.0078 23.7649 16.1518 23.8384 16.2958C23.9854 16.6078 24.1324 16.9198 24.5734 17.0638C24.5734 16.4158 24.5979 15.8158 24.5489 15.2158C24.5489 15.1198 24.3529 14.9998 24.2304 14.9038C23.4709 14.4478 23.1524 13.7758 23.3484 12.9838C23.4709 12.4798 23.8139 12.1438 24.2549 11.9278C24.3774 11.8558 24.4509 11.6878 24.5489 11.5918C24.6714 11.4718 24.8184 11.2798 24.9654 11.2798C25.1124 11.2798 25.3574 11.4478 25.3819 11.5918C25.4309 11.8078 25.5534 11.8798 25.7249 11.9518C26.2884 12.1678 26.6559 12.5518 26.7049 13.1518C26.7294 13.4398 26.6314 13.6558 26.3374 13.7278C26.0434 13.7998 25.8719 13.6558 25.7739 13.3918C25.7249 13.2238 25.6269 13.0558 25.5289 12.8878C25.5534 12.8878 25.5044 12.8878 25.4799 12.9118ZM25.5044 15.5038C25.5044 16.0558 25.5044 16.5358 25.5044 17.0638C25.8964 16.8958 26.1169 16.6318 26.1169 16.2478C26.1169 15.8398 25.8474 15.6718 25.5044 15.5038ZM24.5489 13.8718C24.5489 13.5358 24.5489 13.2238 24.5489 12.8638C24.1814 13.2958 24.2059 13.5358 24.5489 13.8718Z" fill="#575757"/>
<path d="M25.5781 33.0479C25.9456 33.2399 26.2151 33.4319 26.2151 33.8399C26.2151 34.2719 26.0191 34.5359 25.5781 34.7279C25.5781 34.1759 25.5781 33.6479 25.5781 33.0479Z" fill="#575757"/>
<path d="M24.5245 30.168C24.5245 30.552 24.5245 30.888 24.5245 31.2C24.1325 30.984 24.1325 30.624 24.5245 30.168Z" fill="#575757"/>
</svg>
