<svg width="68" height="68" viewBox="0 0 68 68" fill="none" xmlns="http://www.w3.org/2000/svg">
<path d="M28.4574 54.502C26.7234 54.468 25.1594 56.032 25.0914 57.8C25.0574 59.534 26.6214 61.166 28.3894 61.2C30.1234 61.234 31.6874 59.67 31.7554 57.902C31.7894 56.134 30.2254 54.536 28.4574 54.502Z" fill="white"/>
<path d="M46.2734 54.5015C44.4714 54.4675 42.9414 55.9975 42.9414 57.8335C42.9414 59.6695 44.4374 61.1655 46.2394 61.1655C48.0414 61.1655 49.5374 59.6355 49.5374 57.8335C49.5374 56.0315 48.0754 54.5355 46.2734 54.5015Z" fill="white"/>
<path d="M38.862 20.5018C38.862 19.8218 38.42 19.4478 37.638 19.4478H36.04V21.5218H37.638C38.42 21.5218 38.862 21.1818 38.862 20.5018Z" fill="white"/>
<path d="M37.774 23.2896H36.04V25.4996H37.808C38.624 25.4996 39.066 25.1256 39.066 24.4116C39.1 23.6976 38.59 23.2896 37.774 23.2896Z" fill="white"/>
<path d="M50.6599 19.584H49.5039V25.33H50.6599C52.4959 25.33 53.5499 24.276 53.5499 22.474C53.5499 20.672 52.4619 19.584 50.6599 19.584Z" fill="white"/>
<path d="M44.0641 7.78577C35.8021 7.75177 29.5801 14.4498 29.5801 22.1678C29.5801 30.1578 35.9381 36.5838 43.9621 36.6178C51.6801 36.6858 58.4121 30.5318 58.4461 22.2358C58.4801 14.2458 52.1901 7.81977 44.0641 7.78577ZM38.2501 27.4378H33.6261V17.5098H38.0801C40.0861 17.5098 41.3101 18.4958 41.3101 20.0938C41.3101 21.2838 40.5961 22.0658 39.6441 22.3378C40.8001 22.5758 41.5481 23.5958 41.5481 24.7178C41.5141 26.3838 40.3241 27.4378 38.2501 27.4378ZM45.3561 27.4378H42.9421V17.5098H45.3561V27.4378ZM50.7961 27.4378H47.0901V17.5098H50.7961C53.9581 17.5098 55.9981 19.5158 55.9981 22.4738C55.9981 25.3978 53.9581 27.4378 50.7961 27.4378Z" fill="white"/>
<path d="M43.9617 38.7596C34.8157 38.7596 27.4037 31.3136 27.4037 22.2016C27.4037 21.8276 27.4037 21.4536 27.4377 21.1136H25.0237C23.0517 21.1136 21.1137 21.1136 19.1417 21.1136C18.8697 19.8556 18.6317 18.6316 18.3937 17.4076C17.7477 14.2456 15.3677 12.3076 12.1377 12.3076C10.4377 12.3076 8.70366 12.3076 7.00366 12.3076C6.73166 12.3076 6.42566 12.3076 6.18766 12.3756C5.50766 12.5796 4.99766 13.3616 5.06566 14.0076C5.16766 14.8236 5.84766 15.5036 6.66366 15.5036C8.46566 15.5376 10.2337 15.5376 12.0357 15.5376C13.8717 15.5376 14.8237 16.3196 15.2317 18.1216C15.5377 19.6176 15.8777 21.1136 16.1837 22.6096C17.3397 28.0496 18.4957 33.4896 19.6177 38.9636C19.8557 40.0516 20.0597 41.1736 20.2977 42.3976C19.6177 42.3976 19.0737 42.3636 18.4957 42.3976C15.2997 42.6016 13.1577 46.1036 14.3137 49.0616C15.0617 50.9656 16.9997 52.3256 19.2437 52.2916C30.1917 52.2576 41.1057 52.2576 52.0537 52.2576C52.1897 52.2576 52.3257 52.2576 52.4617 52.2576C53.3457 52.2236 53.9577 51.5436 53.9917 50.6596C53.9917 49.7756 53.3797 49.0956 52.4957 49.0276C52.2577 48.9936 52.0197 49.0276 51.7817 49.0276C41.0377 49.0276 30.2597 49.0276 19.5157 49.0276C19.1757 49.0276 18.8357 49.0276 18.4957 48.9256C17.2717 48.5856 16.8637 47.1916 17.6457 46.2056C18.0537 45.6956 18.6317 45.5596 19.2437 45.5596C24.5137 45.5596 29.7837 45.5596 35.0537 45.5596C40.6977 45.5596 46.3417 45.5596 51.9857 45.5596C53.2777 45.5596 53.7197 45.1856 53.9917 43.9276C54.2637 42.6356 54.5357 41.3436 54.8077 40.0176C54.9777 39.1676 55.1817 38.3176 55.3857 37.3996L56.0997 33.4216C53.0737 36.6856 48.7557 38.7596 43.9617 38.7596Z" fill="white"/>
</svg>
