<svg width="40" height="40" viewBox="0 0 40 40" fill="none" xmlns="http://www.w3.org/2000/svg">
<path d="M19.6339 16.0564C13.7457 16.0564 7.89379 16.0564 2.00559 16.0564C1.60577 16.0564 1.2423 15.9837 0.915178 15.8019C0.733444 15.6929 0.588056 15.5475 0.515362 15.4021C0.406321 15.1477 0.29728 14.8569 0.29728 14.5661C0.260933 13.3303 0.260933 12.1309 0.29728 10.8951C0.333627 10.0228 0.66075 9.29582 1.42404 8.75061C1.93289 8.42349 2.44175 8.24176 3.05965 8.24176C3.67755 8.24176 4.33179 8.24176 4.94969 8.24176C5.34951 8.24176 5.4222 8.16906 5.24047 7.80559C4.94969 7.26039 4.91334 6.64249 4.84065 6.02459C4.8043 5.66112 4.94969 5.334 4.94969 4.97053C4.98604 4.53437 5.13143 4.13455 5.31316 3.73473C5.64028 3.08049 6.0401 2.49894 6.658 2.02643C7.02147 1.772 7.38494 1.51757 7.78475 1.26314C8.00283 1.11775 8.25726 1.04506 8.51169 1.00871C9.20228 0.899672 9.89288 0.754285 10.6198 0.863326C11.1287 0.93602 11.6012 1.04506 12.0737 1.26314C12.4372 1.44488 12.8006 1.62661 13.0914 1.88104C14.0364 2.68067 14.9451 3.553 15.8538 4.35263C16.1446 4.60706 16.4353 4.86149 16.7261 5.11592C16.7625 5.15227 16.8715 5.15227 16.9442 5.11592C17.235 4.93418 17.453 4.7161 17.7438 4.57071C18.0346 4.42533 18.3617 4.27994 18.6888 4.20724C19.3431 4.06186 19.9973 4.06186 20.6516 4.20724C21.1604 4.31629 21.6329 4.57072 22.0328 4.86149C22.1418 4.93419 22.2508 5.00688 22.3599 5.11592C22.4689 5.18861 22.5053 5.18861 22.6143 5.07957C23.0868 4.60706 23.5957 4.1709 24.1045 3.73473C24.5407 3.33492 25.0132 2.9351 25.4494 2.53529C25.7765 2.24451 26.14 1.95373 26.5034 1.69931C26.7942 1.48122 27.1577 1.33584 27.4848 1.19045C28.03 0.899672 28.6479 0.826978 29.2658 0.826978C29.8837 0.826978 30.5016 0.936019 31.0832 1.1541C31.9918 1.48122 32.7551 2.06278 33.3367 2.78971C33.6274 3.15318 33.8455 3.58935 34.0636 4.02551C34.318 4.57071 34.3544 5.11592 34.3907 5.66112C34.4271 6.20633 34.2817 6.78788 34.209 7.36943C34.1726 7.55116 34.0273 7.7329 33.9909 7.91464C33.9182 8.16906 33.9546 8.24176 34.2453 8.24176C34.6452 8.24176 35.045 8.24176 35.4448 8.24176C35.881 8.24176 36.3171 8.20541 36.7169 8.27811C37.5529 8.42349 38.2072 8.82331 38.6433 9.55025C38.8978 9.95006 39.0068 10.3862 39.0068 10.8587C39.0431 12.0945 39.0068 13.3303 39.0068 14.5661C39.0068 15.0386 38.8614 15.4385 38.4979 15.7292C38.2799 15.8746 38.0254 15.9473 37.771 16.02C37.6256 16.0564 37.4802 16.0564 37.2985 16.0564C31.3739 16.0564 25.5221 16.0564 19.6339 16.0564ZM15.7447 8.20541C15.7447 8.16906 15.7811 8.13272 15.7811 8.09637C15.5267 7.87829 15.3086 7.62386 15.0541 7.40578C14.4726 6.86057 13.8547 6.31537 13.2731 5.77016C12.7643 5.29765 12.2554 4.7888 11.7102 4.35263C11.4194 4.0982 11.0923 3.84378 10.7289 3.73473C10.0746 3.553 9.38402 3.553 8.72978 3.95282C8.29361 4.24359 7.93014 4.60706 7.78475 5.07957C7.53032 5.9519 7.56667 6.78788 8.25726 7.51482C8.69343 7.95098 9.16594 8.24176 9.82018 8.24176C11.6739 8.24176 13.4912 8.24176 15.3449 8.24176C15.454 8.2781 15.5993 8.24176 15.7447 8.20541ZM23.4866 8.09637C23.4866 8.13272 23.523 8.16906 23.523 8.20541C23.6684 8.24176 23.7774 8.27811 23.9228 8.27811C25.7038 8.27811 27.5212 8.27811 29.3022 8.27811C29.7383 8.27811 30.1381 8.09637 30.5016 7.91464C31.1922 7.51482 31.592 6.89692 31.592 6.09729C31.6284 5.51574 31.5193 4.97053 31.1558 4.53437C30.756 4.06186 30.2835 3.73473 29.6293 3.66204C28.9387 3.58935 28.3208 3.73473 27.7756 4.1709C27.5575 4.35263 27.3394 4.57071 27.1213 4.75245C26.6852 5.15227 26.249 5.51574 25.8128 5.91555C25.2313 6.46076 24.6497 6.96961 24.0682 7.51482C23.8501 7.69655 23.6684 7.91464 23.4866 8.09637Z" fill="#F97A1C"/>
<path d="M17.2352 28.8143C17.2352 32.1946 17.2352 35.5385 17.2352 38.9188C17.2352 39.3549 17.1988 39.3913 16.7627 39.3913C13.0916 39.3913 9.38425 39.3913 5.71321 39.3913C5.49513 39.3913 5.27704 39.3913 5.05896 39.3549C4.36837 39.3186 3.85951 38.9551 3.42335 38.4463C3.02353 37.9738 2.8418 37.4286 2.8418 36.847C2.8418 36.7016 2.8418 36.5562 2.8418 36.4472C2.8418 30.5226 2.8418 24.5617 2.8418 18.6372C2.8418 18.3464 2.91449 18.3101 3.20527 18.3101C4.44106 18.3101 5.67686 18.3101 6.91266 18.3101C10.2202 18.3101 13.5278 18.3101 16.8354 18.3101C17.2352 18.3101 17.2715 18.3464 17.2715 18.7462C17.2352 22.0538 17.2352 25.4341 17.2352 28.8143Z" fill="#F97A1C"/>
<path d="M22.0329 28.8141C22.0329 25.4338 22.0329 22.0899 22.0329 18.7096C22.0329 18.3098 22.0693 18.2734 22.4691 18.2734C26.9761 18.2734 31.4831 18.2734 35.9902 18.2734C36.0629 18.2734 36.1355 18.2734 36.2082 18.2734C36.3536 18.3098 36.4263 18.3825 36.4263 18.5279C36.4263 18.6733 36.4263 18.8186 36.4263 18.964C36.4263 24.8159 36.4263 30.6314 36.4263 36.4833C36.4263 36.7377 36.4263 36.9558 36.39 37.2102C36.3536 37.9008 35.9538 38.3733 35.4813 38.8095C34.9724 39.2456 34.3909 39.391 33.7366 39.391C29.9566 39.391 26.1401 39.391 22.3601 39.391C22.0693 39.391 21.9966 39.3183 21.9966 38.9912C22.0329 35.5746 22.0329 32.1943 22.0329 28.8141Z" fill="#F97A1C"/>
</svg>
