<svg width="34" height="34" viewBox="0 0 34 34" fill="none" xmlns="http://www.w3.org/2000/svg">
<ellipse cx="17.0568" cy="16.5" rx="16.875" ry="16.5" fill="white"/>
<path d="M17.2833 13.5239C14.0909 13.5239 10.9182 13.5239 7.72582 13.5239C7.50905 13.5239 7.31199 13.4854 7.13464 13.389C7.03611 13.3312 6.95728 13.2541 6.91787 13.1771C6.85875 13.0422 6.79963 12.888 6.79963 12.7339C6.77992 12.0788 6.77992 11.4429 6.79963 10.7878C6.81934 10.3254 6.99669 9.93999 7.41052 9.65097C7.68641 9.47755 7.9623 9.38121 8.2973 9.38121C8.63231 9.38121 8.98702 9.38121 9.32202 9.38121C9.53879 9.38121 9.5782 9.34267 9.47967 9.14999C9.32202 8.86097 9.30232 8.53341 9.2629 8.20585C9.2432 8.01316 9.32202 7.83975 9.32202 7.64707C9.34173 7.41585 9.42055 7.2039 9.51908 6.99194C9.69644 6.64512 9.91321 6.33682 10.2482 6.08634C10.4453 5.95146 10.6423 5.81658 10.8591 5.6817C10.9773 5.60463 11.1153 5.56609 11.2532 5.54683C11.6276 5.48902 12.0021 5.41195 12.3962 5.46975C12.6721 5.50829 12.9283 5.56609 13.1844 5.6817C13.3815 5.77804 13.5786 5.87439 13.7362 6.00926C14.2486 6.43317 14.7412 6.8956 15.2339 7.31951C15.3915 7.45438 15.5492 7.58926 15.7068 7.72414C15.7265 7.74341 15.7857 7.74341 15.8251 7.72414C15.9827 7.6278 16.1009 7.51219 16.2586 7.43511C16.4162 7.35804 16.5936 7.28097 16.771 7.24243C17.1257 7.16536 17.4804 7.16536 17.8351 7.24243C18.111 7.30024 18.3672 7.43512 18.5839 7.58926C18.643 7.6278 18.7022 7.66633 18.7613 7.72414C18.8204 7.76268 18.8401 7.76268 18.8992 7.70487C19.1554 7.45438 19.4313 7.22316 19.7072 6.99194C19.9437 6.77999 20.1998 6.56804 20.4363 6.35609C20.6137 6.20195 20.8107 6.0478 21.0078 5.91292C21.1654 5.79731 21.3625 5.72024 21.5399 5.64317C21.8354 5.48902 22.1705 5.45048 22.5055 5.45048C22.8405 5.45048 23.1755 5.50829 23.4908 5.6239C23.9834 5.79731 24.3973 6.1056 24.7126 6.49097C24.8702 6.68365 24.9884 6.91487 25.1067 7.14609C25.2446 7.43511 25.2643 7.72414 25.284 8.01316C25.3037 8.30219 25.2249 8.61048 25.1855 8.91877C25.1658 9.01511 25.087 9.11145 25.0673 9.2078C25.0278 9.34267 25.0476 9.38121 25.2052 9.38121C25.422 9.38121 25.6387 9.38121 25.8555 9.38121C26.092 9.38121 26.3285 9.36194 26.5452 9.40048C26.9985 9.47755 27.3532 9.6895 27.5897 10.0749C27.7276 10.2868 27.7867 10.518 27.7867 10.7685C27.8064 11.4236 27.7867 12.0788 27.7867 12.7339C27.7867 12.9844 27.7079 13.1963 27.5108 13.3505C27.3926 13.4275 27.2546 13.4661 27.1167 13.5046C27.0379 13.5239 26.9591 13.5239 26.8605 13.5239C23.6484 13.5239 20.4757 13.5239 17.2833 13.5239ZM15.1748 9.36194C15.1748 9.34267 15.1945 9.32341 15.1945 9.30414C15.0565 9.18853 14.9383 9.05365 14.8003 8.93804C14.485 8.64902 14.15 8.35999 13.8347 8.07097C13.5589 7.82048 13.283 7.55072 12.9874 7.31951C12.8297 7.18463 12.6524 7.04975 12.4553 6.99194C12.1006 6.8956 11.7262 6.8956 11.3715 7.10756C11.135 7.2617 10.9379 7.45438 10.8591 7.70487C10.7212 8.16731 10.7409 8.61048 11.1153 8.99584C11.3518 9.22706 11.6079 9.38121 11.9627 9.38121C12.9677 9.38121 13.953 9.38121 14.958 9.38121C15.0171 9.40048 15.0959 9.38121 15.1748 9.36194ZM19.3722 9.30414C19.3722 9.32341 19.3919 9.34267 19.3919 9.36194C19.4707 9.38121 19.5298 9.40048 19.6086 9.40048C20.5743 9.40048 21.5596 9.40048 22.5252 9.40048C22.7616 9.40048 22.9784 9.30414 23.1755 9.2078C23.5499 8.99585 23.7667 8.66828 23.7667 8.24438C23.7864 7.93609 23.7272 7.64707 23.5302 7.41585C23.3134 7.16536 23.0572 6.99194 22.7025 6.95341C22.3281 6.91487 21.9931 6.99195 21.6975 7.22316C21.5793 7.31951 21.461 7.43511 21.3428 7.53146C21.1063 7.74341 20.8698 7.93609 20.6334 8.14804C20.3181 8.43706 20.0028 8.70682 19.6875 8.99584C19.5692 9.09219 19.4707 9.2078 19.3722 9.30414Z" fill="#F97A1C"/>
<path d="M15.9827 20.287C15.9827 22.079 15.9827 23.8517 15.9827 25.6436C15.9827 25.8748 15.963 25.8941 15.7265 25.8941C13.7362 25.8941 11.7262 25.8941 9.73586 25.8941C9.61762 25.8941 9.49938 25.8941 9.38114 25.8748C9.00673 25.8556 8.73084 25.6629 8.49437 25.3931C8.2776 25.1427 8.17907 24.8536 8.17907 24.5453C8.17907 24.4683 8.17907 24.3912 8.17907 24.3334C8.17907 21.1927 8.17907 18.0327 8.17907 14.8919C8.17907 14.7378 8.21848 14.7185 8.37613 14.7185C9.04614 14.7185 9.71615 14.7185 10.3862 14.7185C12.1794 14.7185 13.9727 14.7185 15.7659 14.7185C15.9827 14.7185 16.0024 14.7378 16.0024 14.9497C15.9827 16.7032 15.9827 18.4951 15.9827 20.287Z" fill="#F97A1C"/>
<path d="M18.5839 20.2871C18.5839 18.4951 18.5839 16.7224 18.5839 14.9305C18.5839 14.7185 18.6036 14.6993 18.8204 14.6993C21.264 14.6993 23.7075 14.6993 26.1511 14.6993C26.1905 14.6993 26.2299 14.6993 26.2693 14.6993C26.3482 14.7185 26.3876 14.7571 26.3876 14.8341C26.3876 14.9112 26.3876 14.9883 26.3876 15.0654C26.3876 18.1675 26.3876 21.2505 26.3876 24.3527C26.3876 24.4875 26.3876 24.6031 26.3679 24.738C26.3482 25.1041 26.1314 25.3546 25.8752 25.5858C25.5993 25.817 25.284 25.8941 24.9293 25.8941C22.8799 25.8941 20.8107 25.8941 18.7613 25.8941C18.6036 25.8941 18.5642 25.8556 18.5642 25.6822C18.5839 23.8709 18.5839 22.079 18.5839 20.2871Z" fill="#F97A1C"/>
</svg>
