<svg width="49" height="49" viewBox="0 0 49 49" fill="none" xmlns="http://www.w3.org/2000/svg">
<path d="M10.4369 13.3769C10.4614 13.5239 10.4859 13.6954 10.5104 13.8424H10.5349C10.5349 13.7934 10.5594 13.7444 10.5594 13.6954C10.5349 12.5684 11.0984 11.7109 11.8824 11.0004C12.6909 10.2409 13.6709 9.92244 14.7734 9.89794C15.0919 9.89794 15.4349 9.87344 15.7534 9.89794C15.9249 9.89794 15.9739 9.84893 15.9739 9.67743C15.9739 9.18743 15.9739 8.69744 15.9739 8.20743C15.9739 8.06043 15.9984 7.91344 16.0229 7.76644C16.1209 7.42344 16.5129 7.17843 16.8069 7.22743C17.2234 7.30093 17.5174 7.61944 17.5174 8.06044C17.5174 8.59944 17.5174 9.13843 17.5174 9.67743C17.5174 9.82443 17.5419 9.89794 17.7134 9.89794C19.0119 9.89794 20.3349 9.89794 21.6334 9.89794C21.6824 9.89794 21.7069 9.89794 21.7804 9.89794C21.7804 9.82444 21.7804 9.75093 21.7804 9.70193C21.7804 9.18743 21.7804 8.67294 21.7804 8.18294C21.7804 7.76644 21.9764 7.44793 22.3194 7.32543C22.7359 7.17843 23.2014 7.42343 23.2994 7.83993C23.3239 7.93793 23.3484 8.03594 23.3484 8.13394C23.3484 8.67294 23.3484 9.21194 23.3484 9.72644C23.3484 9.87344 23.3974 9.89794 23.5199 9.89794C24.8429 9.89794 26.1659 9.89794 27.4889 9.89794C27.6114 9.89794 27.6359 9.84893 27.6359 9.75093C27.6359 9.18743 27.6359 8.62394 27.6359 8.06044C27.6359 7.69294 27.8319 7.47243 28.1504 7.30093C28.5424 7.10493 29.1794 7.47243 29.1794 7.91343C29.1794 8.50143 29.1794 9.06494 29.1794 9.65294C29.1794 9.89794 29.1794 9.87344 29.4244 9.89794C29.9634 9.89794 30.5269 9.87343 31.0659 9.94693C31.9724 10.0694 32.7564 10.4614 33.4179 11.1229C34.2754 11.9804 34.6919 13.0339 34.7164 14.2344C34.7164 14.5529 34.7164 14.8959 34.7164 15.2144C34.7164 15.6309 34.4224 15.9494 34.0304 15.9984C33.6384 16.0474 33.2954 15.8024 33.1974 15.3859C33.1729 15.2634 33.1484 15.1164 33.1484 14.9939C33.1239 14.5284 33.1729 14.0384 33.0994 13.5729C32.9279 12.5194 31.8989 11.5639 30.8454 11.4659C30.3554 11.4169 29.8409 11.4414 29.3264 11.4169C29.2039 11.4169 29.1794 11.4659 29.1794 11.5884C29.1794 12.1274 29.1794 12.6909 29.1794 13.2299C29.1794 13.5974 29.0324 13.8669 28.6649 14.0384C28.1994 14.2344 27.6359 13.8914 27.6114 13.3769C27.6114 12.7889 27.6114 12.2254 27.6114 11.6374C27.6114 11.4904 27.5869 11.4414 27.4154 11.4414C26.1169 11.4414 24.8184 11.4414 23.5199 11.4414C23.3729 11.4414 23.3239 11.4904 23.3239 11.6374C23.3239 12.1764 23.3239 12.7399 23.3239 13.2789C23.3239 13.6954 23.1034 13.9894 22.7114 14.0874C22.3929 14.1609 22.0254 14.0139 21.8784 13.7199C21.8049 13.5484 21.7559 13.3279 21.7559 13.1319C21.7314 12.5684 21.7559 12.0294 21.7559 11.4414C21.6579 11.4414 21.5599 11.4414 21.4619 11.4414C20.2124 11.4414 18.9629 11.4414 17.7134 11.4414C17.5419 11.4414 17.4929 11.4904 17.4929 11.6619C17.4929 12.1764 17.4929 12.6909 17.4929 13.2054C17.4929 13.6464 17.2724 13.9649 16.9049 14.0874C16.4639 14.2099 15.9984 13.9159 15.9494 13.4504C15.9249 13.3034 15.9249 13.1564 15.9249 13.0094C15.9249 12.5684 15.9249 12.1029 15.9249 11.6619C15.9249 11.5149 15.8759 11.4414 15.7289 11.4659C15.2389 11.4904 14.7489 11.4414 14.2589 11.5149C12.9849 11.6864 11.9804 12.8379 11.9559 14.1364C11.9559 14.3814 11.9559 14.6264 11.9559 14.8469C11.9559 22.3684 11.9559 29.9144 11.9559 37.4359C11.9559 38.6364 12.9849 39.9839 14.2834 40.1554C14.5039 40.1799 14.7489 40.1799 14.9939 40.1799C19.9919 40.1799 24.9899 40.1799 29.9879 40.1799C30.1839 40.1799 30.3799 40.1554 30.5514 40.1799C31.6294 40.2044 32.8299 39.2244 33.0749 38.1219C33.1239 37.9504 33.1239 37.7544 33.1239 37.5829C33.1239 36.3579 33.1239 35.1329 33.1239 33.9079C33.1239 33.7609 33.1484 33.5894 33.1974 33.4424C33.3199 33.0749 33.6629 32.8789 34.0794 32.9524C34.4224 33.0014 34.6674 33.3199 34.6674 33.6874C34.6674 35.0104 34.7409 36.3334 34.6429 37.6564C34.5449 39.3224 33.7119 40.5964 32.1684 41.3314C31.7029 41.5519 31.2374 41.7234 30.7229 41.6254C30.6739 41.6254 30.6004 41.6254 30.5514 41.6744C30.6984 41.6989 30.8454 41.7479 30.9924 41.7724C25.3084 41.7724 19.6489 41.7724 13.9649 41.7724C14.1609 41.7479 14.3569 41.7234 14.5774 41.6744C14.2099 41.6499 13.8669 41.6744 13.5484 41.5764C12.4459 41.2824 11.5639 40.6699 11.0004 39.6654C10.6819 39.1019 10.4124 38.5384 10.4859 37.8524C10.4859 37.7789 10.4859 37.6809 10.4859 37.6074C10.4614 37.6074 10.4614 37.6074 10.4369 37.6074C10.4124 37.8034 10.3634 37.9749 10.3389 38.1709C10.4369 29.9144 10.4369 21.6334 10.4369 13.3769Z" fill="#575757"/>
<path d="M26.5579 35.1574C26.5824 34.8879 26.5824 34.6429 26.6069 34.3979C26.6559 33.1974 26.6804 31.9724 26.7294 30.7719C26.7539 30.3799 26.8274 30.0124 27.0234 29.6694C27.5379 28.7874 28.0524 27.8809 28.5424 26.9989C29.2039 25.8474 29.8654 24.6714 30.5514 23.5199C31.1884 22.3929 31.8499 21.2659 32.4869 20.1389C33.0504 19.1344 33.6384 18.1299 34.2019 17.1254C34.6919 16.1944 35.4269 15.6554 36.4804 15.4594C38.1709 15.1164 40.1799 16.2189 40.5964 18.2279C40.7679 19.0364 40.5964 19.7714 40.2044 20.4819C39.1999 22.2459 38.1709 24.0099 37.1664 25.7739C35.7699 28.1994 34.3734 30.6249 32.9769 33.0259C32.7809 33.3444 32.5359 33.6139 32.2174 33.8099C30.7719 34.7164 29.3509 35.6229 27.9054 36.5294C27.6604 36.6764 27.3909 36.7499 27.0969 36.7499C23.5199 36.7499 19.9184 36.7499 16.3414 36.7499C16.1944 36.7499 16.0474 36.7499 15.9004 36.7254C15.4839 36.6274 15.2389 36.3089 15.2879 35.8924C15.3124 35.5004 15.6309 35.2064 16.0474 35.1819C16.1209 35.1819 16.1699 35.1819 16.2434 35.1819C19.5999 35.1819 22.9564 35.1819 26.3129 35.1819C26.3864 35.1574 26.4599 35.1574 26.5579 35.1574ZM34.3244 20.0164C34.2754 20.0899 34.2509 20.1389 34.2264 20.1879C33.9324 20.7269 33.6139 21.2414 33.3199 21.7804C31.7274 24.5734 30.1104 27.3419 28.5179 30.1349C28.4444 30.2574 28.4689 30.3309 28.5669 30.4289C29.3509 31.1639 30.2574 31.7274 31.3109 32.0704C31.6784 32.1929 31.6784 32.1929 31.8744 31.8744C32.7074 30.4534 33.5159 29.0324 34.3489 27.6114C35.3044 25.9454 36.2599 24.3039 37.2154 22.6379C37.7789 21.6334 38.3669 20.6534 38.9304 19.6489C39.1754 19.2324 39.2244 18.7424 39.0039 18.3014C38.6854 17.5909 38.1219 17.1254 37.3379 17.0274C36.6029 16.9294 35.9904 17.1499 35.5984 17.8604C35.4759 18.0809 35.3534 18.3014 35.2309 18.5219C35.1329 18.6689 35.1574 18.7424 35.3044 18.8404C35.6719 19.0364 36.0149 19.2324 36.3579 19.4529C36.5784 19.5999 36.8234 19.7224 37.0194 19.8939C37.2889 20.1144 37.3134 20.5309 37.1174 20.8249C36.9214 21.1434 36.5539 21.2659 36.2109 21.1434C36.0639 21.0944 35.9414 21.0209 35.7944 20.9229C35.3044 20.5799 34.8144 20.3104 34.3244 20.0164ZM30.0614 33.2954C29.4489 32.9524 28.8609 32.6094 28.2239 32.2419C28.1994 33.0014 28.1749 33.7119 28.1259 34.4959C28.7874 34.0794 29.4244 33.6874 30.0614 33.2954Z" fill="#575757"/>
<path d="M22.5889 18.4239C24.7449 18.4239 26.8764 18.4239 29.0324 18.4239C29.4979 18.4239 29.7674 18.5709 29.8899 18.9139C30.1104 19.4774 29.7674 19.9919 29.1304 20.0164C29.0814 20.0164 29.0569 20.0164 29.0079 20.0164C24.7449 20.0164 20.4819 20.0164 16.2189 20.0164C16.0719 20.0164 15.9249 19.9919 15.7779 19.9429C15.4104 19.8449 15.2144 19.5264 15.2389 19.1344C15.2634 18.7914 15.5574 18.4729 15.9249 18.4239C16.0964 18.3994 16.2679 18.3994 16.4394 18.3994C18.4729 18.4239 20.5309 18.4239 22.5889 18.4239Z" fill="#575757"/>
<path d="M21.6581 25.6515C19.8696 25.6515 18.0566 25.6515 16.2681 25.6515C15.9741 25.6515 15.6556 25.6515 15.4351 25.4065C15.2391 25.186 15.1411 24.941 15.2391 24.647C15.3371 24.353 15.5331 24.157 15.8516 24.108C15.9741 24.0835 16.0966 24.0835 16.2191 24.0835C19.8941 24.0835 23.5691 24.0835 27.2441 24.0835C27.5626 24.0835 27.8566 24.157 28.0281 24.4265C28.3711 24.941 28.0771 25.6025 27.4401 25.6515C27.0236 25.676 26.5826 25.676 26.1661 25.676C24.6471 25.676 23.1526 25.676 21.6581 25.6515Z" fill="#575757"/>
<path d="M20.4087 29.8657C21.8787 29.8657 23.3487 29.8657 24.8187 29.8657C25.2352 29.8657 25.5047 30.0862 25.6272 30.4782C25.7252 30.8702 25.4312 31.3602 25.0147 31.4092C24.8677 31.4337 24.7452 31.4337 24.5982 31.4337C21.8297 31.4337 19.0857 31.4337 16.3172 31.4337C16.1947 31.4337 16.0722 31.4337 15.9497 31.4092C15.5087 31.3847 15.1412 31.0172 15.1657 30.6252C15.1902 30.1842 15.5087 29.8657 15.9987 29.8657C17.4932 29.8657 18.9632 29.8657 20.4087 29.8657Z" fill="#575757"/>
</svg>
