<svg width="33" height="32" viewBox="0 0 33 32" fill="none" xmlns="http://www.w3.org/2000/svg">
<path d="M14.74 28.06C13.72 28.04 12.8 28.96 12.76 30C12.74 31.02 13.66 31.98 14.7 32C15.72 32.02 16.64 31.1 16.68 30.06C16.7 29.02 15.78 28.08 14.74 28.06Z" fill="white"/>
<path d="M25.22 28.06C24.16 28.04 23.26 28.94 23.26 30.02C23.26 31.1 24.14 31.98 25.2 31.98C26.26 31.98 27.14 31.08 27.14 30.02C27.14 28.96 26.28 28.08 25.22 28.06Z" fill="white"/>
<path d="M20.86 8.06C20.86 7.66 20.6 7.44 20.14 7.44H19.2V8.66H20.14C20.6 8.66 20.86 8.46 20.86 8.06Z" fill="white"/>
<path d="M20.22 9.7H19.2V11H20.24C20.72 11 20.98 10.78 20.98 10.36C21 9.94 20.7 9.7 20.22 9.7Z" fill="white"/>
<path d="M27.8 7.52H27.12V10.9H27.8C28.88 10.9 29.5 10.28 29.5 9.22C29.5 8.16 28.86 7.52 27.8 7.52Z" fill="white"/>
<path d="M23.92 0.580001C19.06 0.560001 15.4 4.5 15.4 9.04C15.4 13.74 19.14 17.52 23.86 17.54C28.4 17.58 32.36 13.96 32.38 9.08C32.4 4.38 28.7 0.600001 23.92 0.580001ZM20.5 12.14H17.78V6.3H20.4C21.58 6.3 22.3 6.88 22.3 7.82C22.3 8.52 21.88 8.98 21.32 9.14C22 9.28 22.44 9.88 22.44 10.54C22.42 11.52 21.72 12.14 20.5 12.14ZM24.68 12.14H23.26V6.3H24.68V12.14ZM27.88 12.14H25.7V6.3H27.88C29.74 6.3 30.94 7.48 30.94 9.22C30.94 10.94 29.74 12.14 27.88 12.14Z" fill="white"/>
<path d="M23.86 18.8C18.48 18.8 14.12 14.42 14.12 9.06C14.12 8.84 14.12 8.62 14.14 8.42H12.72C11.56 8.42 10.42 8.42 9.26001 8.42C9.10001 7.68 8.96001 6.96 8.82001 6.24C8.44001 4.38 7.04001 3.24 5.14001 3.24C4.14001 3.24 3.12001 3.24 2.12001 3.24C1.96001 3.24 1.78001 3.24 1.64001 3.28C1.24001 3.4 0.940005 3.86 0.980005 4.24C1.04001 4.72 1.44001 5.12 1.92001 5.12C2.98001 5.14 4.02001 5.14 5.08001 5.14C6.16001 5.14 6.72001 5.6 6.96001 6.66C7.14001 7.54 7.34001 8.42 7.52001 9.3C8.20001 12.5 8.88001 15.7 9.54001 18.92C9.68001 19.56 9.80001 20.22 9.94001 20.94C9.54001 20.94 9.22001 20.92 8.88001 20.94C7.00001 21.06 5.74001 23.12 6.42001 24.86C6.86001 25.98 8.00001 26.78 9.32001 26.76C15.76 26.74 22.18 26.74 28.62 26.74C28.7 26.74 28.78 26.74 28.86 26.74C29.38 26.72 29.74 26.32 29.76 25.8C29.76 25.28 29.4 24.88 28.88 24.84C28.74 24.82 28.6 24.84 28.46 24.84C22.14 24.84 15.8 24.84 9.48001 24.84C9.28001 24.84 9.08001 24.84 8.88001 24.78C8.16001 24.58 7.92001 23.76 8.38001 23.18C8.62001 22.88 8.96001 22.8 9.32001 22.8C12.42 22.8 15.52 22.8 18.62 22.8C21.94 22.8 25.26 22.8 28.58 22.8C29.34 22.8 29.6 22.58 29.76 21.84C29.92 21.08 30.08 20.32 30.24 19.54C30.34 19.04 30.46 18.54 30.58 18L31 15.66C29.22 17.58 26.68 18.8 23.86 18.8Z" fill="white"/>
</svg>
