<svg width="34" height="35" viewBox="0 0 34 35" fill="none" xmlns="http://www.w3.org/2000/svg">
<path d="M27.931 10.4825C27.897 9.51997 27.404 8.78497 26.588 8.32997C26.095 8.04997 25.551 8.03247 24.99 8.03247C20.757 8.03247 16.524 8.03247 12.291 8.03247C12.036 8.03247 11.781 8.04997 11.543 8.10247C10.404 8.36497 9.68999 9.34497 9.67299 10.605C9.63899 14.525 9.62199 18.4275 9.58799 22.3475C9.58799 22.4525 9.58799 22.54 9.58799 22.68C9.46899 22.68 9.38399 22.68 9.29899 22.68C8.65299 22.68 8.00699 22.68 7.34399 22.68C6.90199 22.68 6.64699 22.9425 6.62999 23.3625C6.62999 23.975 6.61299 24.5875 6.62999 25.2C6.69799 26.8975 8.12599 28.28 9.77499 28.28C13.413 28.28 17.068 28.28 20.706 28.28C21.046 28.28 21.386 28.28 21.726 28.1925C23.222 27.86 24.208 26.5475 24.208 24.9375C24.208 21.525 24.208 18.095 24.208 14.6825C24.208 14.5775 24.208 14.4725 24.208 14.35C24.327 14.35 24.412 14.35 24.497 14.35C25.398 14.35 26.299 14.35 27.2 14.35C27.625 14.35 27.914 14.0875 27.914 13.6675C27.948 12.6 27.965 11.5325 27.931 10.4825ZM20.502 21.3675C20.298 21.385 20.094 21.3675 19.89 21.3675C18.853 21.3675 17.799 21.3675 16.762 21.3675C15.555 21.3675 14.331 21.3675 13.124 21.3675C12.682 21.3675 12.393 21.07 12.41 20.6675C12.427 20.335 12.648 20.0725 12.954 20.02C13.039 20.0025 13.141 20.0025 13.243 20.0025C15.589 20.0025 17.952 20.0025 20.298 20.0025C20.383 20.0025 20.451 20.0025 20.536 20.0025C20.876 20.0375 21.131 20.335 21.131 20.685C21.131 21.0525 20.859 21.35 20.502 21.3675ZM16.422 13.1775C15.334 13.1775 14.229 13.1775 13.141 13.1775C12.699 13.1775 12.41 12.8975 12.41 12.495C12.41 12.0925 12.699 11.83 13.124 11.83C13.685 11.83 14.229 11.83 14.79 11.83C15.334 11.83 15.861 11.83 16.405 11.83C16.847 11.83 17.136 12.11 17.153 12.5125C17.153 12.8975 16.864 13.1775 16.422 13.1775ZM20.281 14.5425C20.366 14.5425 20.451 14.5425 20.536 14.56C20.876 14.595 21.114 14.875 21.114 15.225C21.114 15.5575 20.876 15.855 20.553 15.9075C20.451 15.925 20.366 15.925 20.264 15.925C19.091 15.925 17.901 15.925 16.728 15.925C15.538 15.925 14.331 15.925 13.141 15.925C12.648 15.925 12.342 15.5925 12.41 15.155C12.444 14.84 12.665 14.6125 12.971 14.5775C13.056 14.56 13.141 14.56 13.226 14.56C15.589 14.5425 17.935 14.5425 20.281 14.5425ZM20.519 18.6375C20.179 18.655 19.856 18.655 19.516 18.655C18.598 18.655 17.68 18.655 16.762 18.655C15.555 18.655 14.331 18.655 13.124 18.655C12.665 18.655 12.359 18.34 12.393 17.92C12.41 17.605 12.631 17.36 12.937 17.3075C13.022 17.29 13.124 17.29 13.226 17.29C15.572 17.29 17.918 17.29 20.264 17.29C20.366 17.29 20.451 17.29 20.553 17.3075C20.893 17.36 21.131 17.64 21.114 17.99C21.131 18.3225 20.876 18.62 20.519 18.6375ZM18.207 26.8975C15.47 26.8975 12.733 26.8975 9.99599 26.8975C9.33299 26.8975 8.75499 26.7225 8.36399 26.145C8.21099 25.9175 8.07499 25.6375 8.02399 25.375C7.95599 24.9375 7.97299 24.5 7.95599 24.045C11.288 24.045 14.586 24.045 17.918 24.045C17.884 25.025 17.867 26.005 18.496 26.88C18.36 26.8975 18.275 26.8975 18.207 26.8975ZM26.605 12.9675C25.789 12.9675 25.024 12.9675 24.242 12.9675C24.242 12.8975 24.225 12.845 24.225 12.7925C24.225 12.075 24.225 11.375 24.225 10.6575C24.225 9.92247 24.735 9.39747 25.432 9.39747C26.078 9.39747 26.588 9.93997 26.605 10.64C26.622 11.41 26.605 12.18 26.605 12.9675Z" fill="#F97A1C"/>
</svg>
