<svg width="57" height="21" viewBox="0 0 57 21" fill="none" xmlns="http://www.w3.org/2000/svg">
<path d="M13 3H49.5C53.6421 3 57 6.35786 57 10.5V10.5C57 14.6421 53.6421 18 49.5 18H13V3Z" fill="white" fill-opacity="0.6"/>
<g clip-path="url(#clip0_1_52)">
<ellipse cx="10.5024" cy="10.5047" rx="9.28437" ry="8.04646" fill="#F97A1C"/>
<path d="M6.73909 9.24209C6.73909 8.74693 6.41723 8.47459 5.84779 8.47459H4.68415V9.98484H5.84779C6.41723 9.98484 6.73909 9.73726 6.73909 9.24209Z" fill="white"/>
<path d="M5.94683 11.2723H4.68415V12.8816H5.97158C6.56578 12.8816 6.88764 12.6092 6.88764 12.0893C6.9124 11.5694 6.54103 11.2723 5.94683 11.2723Z" fill="white"/>
<path d="M15.3302 8.57364H14.4884V12.7578H15.3302C16.6671 12.7578 17.4346 11.9903 17.4346 10.6781C17.4346 9.36591 16.6424 8.57364 15.3302 8.57364Z" fill="white"/>
<path d="M10.5271 -0.0174843C4.51086 -0.0422426 -0.0199203 4.83515 -0.0199203 10.4553C-0.0199203 16.2735 4.60989 20.9528 10.4529 20.9776C16.073 21.0271 20.9751 16.5458 20.9999 10.5048C21.0247 4.6866 16.4444 0.00727405 10.5271 -0.0174843ZM6.29345 14.2928H2.92632V7.0634H6.16966C7.6304 7.0634 8.5217 7.78139 8.5217 8.94503C8.5217 9.81157 8.00178 10.381 7.30854 10.5791C8.15033 10.7524 8.69501 11.4951 8.69501 12.3122C8.67025 13.5253 7.80371 14.2928 6.29345 14.2928ZM11.4679 14.2928H9.7101V7.0634H11.4679V14.2928ZM15.4293 14.2928H12.7306V7.0634H15.4293C17.7318 7.0634 19.2173 8.52414 19.2173 10.6781C19.2173 12.8073 17.7318 14.2928 15.4293 14.2928Z" fill="white"/>
</g>
<defs>
<clipPath id="clip0_1_52">
<rect width="29" height="21" fill="white"/>
</clipPath>
</defs>
</svg>
