<svg width="34" height="35" viewBox="0 0 34 35" fill="none" xmlns="http://www.w3.org/2000/svg">
<path d="M9.29898 22.6802C9.29898 22.5402 9.29898 22.4352 9.29898 22.3477C9.33298 18.4277 9.34998 14.5252 9.38398 10.6052C9.40098 9.34521 10.132 8.36521 11.254 8.10271C11.492 8.05021 11.764 8.03271 12.002 8.03271C16.235 8.03271 20.468 8.03271 24.701 8.03271C25.245 8.03271 25.789 8.05021 26.299 8.33021C27.132 8.80271 27.608 9.52021 27.642 10.4827C27.676 11.5327 27.659 12.6002 27.659 13.6677C27.659 14.0877 27.387 14.3502 26.945 14.3502C26.044 14.3502 25.143 14.3502 24.242 14.3502C24.157 14.3502 24.072 14.3502 23.953 14.3502C23.953 14.4727 23.953 14.5777 23.953 14.6827C23.953 18.0952 23.953 21.5252 23.953 24.9377C23.953 26.5652 22.95 27.8777 21.471 28.1927C21.148 28.2627 20.791 28.2627 20.451 28.2802C16.813 28.2802 13.158 28.2802 9.51998 28.2802C7.87098 28.2802 6.45998 26.8977 6.37498 25.2002C6.34098 24.5877 6.35798 23.9752 6.37498 23.3627C6.37498 22.9427 6.64698 22.6802 7.08898 22.6802C7.73498 22.6627 8.38098 22.6802 9.04398 22.6802C9.09498 22.6802 9.17998 22.6802 9.29898 22.6802ZM10.625 22.6802C10.761 22.6802 10.863 22.6802 10.965 22.6802C13.362 22.6802 15.742 22.6802 18.139 22.6802C18.717 22.6802 18.938 22.9252 18.955 23.5202C18.955 24.0627 18.938 24.6052 18.972 25.1302C19.057 26.5302 20.502 27.3352 21.692 26.6527C22.355 26.2677 22.627 25.6377 22.627 24.8852C22.627 20.3177 22.627 15.7327 22.627 11.1652C22.627 10.5877 22.644 10.0102 22.882 9.46771C22.882 9.45021 22.865 9.43271 22.865 9.41521C22.797 9.41521 22.712 9.41521 22.644 9.41521C19.091 9.41521 15.538 9.41521 12.002 9.41521C11.152 9.41521 10.744 9.83521 10.744 10.7102C10.71 14.6302 10.693 18.5327 10.659 22.4527C10.625 22.4877 10.625 22.5577 10.625 22.6802ZM7.66698 24.0452C7.68398 24.5002 7.66698 24.9377 7.73498 25.3752C7.78598 25.6377 7.90498 25.9177 8.07498 26.1452C8.46598 26.7227 9.04398 26.8977 9.70698 26.8977C12.444 26.8977 15.181 26.8977 17.918 26.8977C17.986 26.8977 18.071 26.8977 18.207 26.8802C17.578 26.0052 17.595 25.0427 17.629 24.0452C14.297 24.0452 10.999 24.0452 7.66698 24.0452ZM26.316 12.9677C26.316 12.1802 26.316 11.4102 26.316 10.6577C26.316 9.94021 25.789 9.39771 25.143 9.41521C24.446 9.41521 23.936 9.94021 23.936 10.6752C23.936 11.3927 23.936 12.0927 23.936 12.8102C23.936 12.8627 23.953 12.9152 23.953 12.9852C24.735 12.9677 25.517 12.9677 26.316 12.9677Z" fill="white"/>
<path d="M16.473 21.3679C15.266 21.3679 14.042 21.3679 12.835 21.3679C12.393 21.3679 12.104 21.0704 12.121 20.6679C12.138 20.3354 12.359 20.0729 12.665 20.0204C12.75 20.0029 12.8519 20.0029 12.9539 20.0029C15.3 20.0029 17.663 20.0029 20.009 20.0029C20.094 20.0029 20.162 20.0029 20.247 20.0029C20.587 20.0379 20.842 20.3354 20.842 20.6854C20.842 21.0529 20.57 21.3329 20.213 21.3679C20.009 21.3854 19.805 21.3679 19.601 21.3679C18.564 21.3679 17.51 21.3679 16.473 21.3679Z" fill="white"/>
<path d="M16.49 18.6379C15.283 18.6379 14.059 18.6379 12.852 18.6379C12.393 18.6379 12.087 18.323 12.121 17.903C12.138 17.588 12.359 17.343 12.665 17.2905C12.75 17.273 12.852 17.2729 12.954 17.2729C15.3 17.2729 17.646 17.2729 19.992 17.2729C20.094 17.2729 20.179 17.273 20.281 17.2905C20.621 17.343 20.859 17.6229 20.842 17.9729C20.842 18.3229 20.587 18.6204 20.247 18.6379C19.907 18.6554 19.584 18.6554 19.244 18.6554C18.326 18.6379 17.408 18.6379 16.49 18.6379Z" fill="white"/>
<path d="M16.456 15.9075C15.266 15.9075 14.059 15.9075 12.869 15.9075C12.376 15.9075 12.07 15.575 12.138 15.1375C12.172 14.8225 12.393 14.595 12.699 14.56C12.784 14.5425 12.869 14.5425 12.954 14.5425C15.3 14.5425 17.663 14.5425 20.009 14.5425C20.094 14.5425 20.179 14.5425 20.264 14.56C20.604 14.595 20.842 14.875 20.842 15.225C20.842 15.5575 20.604 15.855 20.281 15.9075C20.179 15.925 20.094 15.925 19.992 15.925C18.802 15.9075 17.629 15.9075 16.456 15.9075Z" fill="white"/>
<path d="M14.501 11.8125C15.045 11.8125 15.572 11.8125 16.116 11.8125C16.558 11.8125 16.847 12.0925 16.864 12.495C16.864 12.8975 16.575 13.1775 16.133 13.1775C15.045 13.1775 13.94 13.1775 12.852 13.1775C12.41 13.1775 12.121 12.8975 12.121 12.495C12.121 12.0925 12.41 11.83 12.835 11.83C13.396 11.8125 13.957 11.8125 14.501 11.8125Z" fill="white"/>
</svg>
