<svg width="53" height="53" viewBox="0 0 53 53" fill="none" xmlns="http://www.w3.org/2000/svg">
<path d="M40.4126 26.8705C40.4126 23.77 40.4126 20.696 40.4126 17.5955C40.4126 14.866 38.7696 12.64 36.1196 11.8715C35.6426 11.739 35.1126 11.6595 34.5826 11.6595C31.4291 11.633 28.2491 11.633 25.0956 11.6595C21.8626 11.686 19.3186 14.2565 19.2656 17.4895C19.2656 18.258 19.2656 19.0265 19.2656 19.795C19.2656 20.5105 19.7691 21.014 20.4316 21.0405C21.0941 21.0405 21.5976 20.537 21.5976 19.8215C21.6241 19.053 21.5976 18.2845 21.5976 17.516C21.5976 15.555 23.1611 13.9915 25.1221 13.9915C28.2491 13.9915 31.3761 13.965 34.5296 13.9915C36.5436 14.018 38.0541 15.5285 38.0541 17.5425C38.0541 22.9485 38.0541 28.328 38.0541 33.734C38.0541 34.6085 38.0541 35.4565 38.0541 36.331C38.0276 38.292 36.4906 39.8555 34.5296 39.8555C31.3761 39.882 28.2491 39.882 25.0956 39.8555C23.1611 39.8555 21.6241 38.292 21.5976 36.3575C21.5976 35.5625 21.6241 34.794 21.5976 33.999C21.5711 33.045 20.6436 32.515 19.8751 32.939C19.5306 33.151 19.2921 33.4425 19.2921 33.84C19.2921 35.0325 19.2391 36.225 19.3981 37.391C19.8221 40.0675 22.2336 42.1345 24.9366 42.161C28.1431 42.1875 31.3761 42.214 34.5826 42.161C37.8686 42.108 40.3596 39.5375 40.3861 36.278C40.4126 33.1245 40.4126 29.9975 40.4126 26.8705Z" fill="#575757"/>
<path d="M14.045 28.0632C14.734 28.0632 15.3965 28.0632 16.0855 28.0632C19.822 28.0632 23.585 28.0632 27.3215 28.0632C28.09 28.0632 28.6465 27.5862 28.6465 26.9237C28.6465 26.2082 28.1165 25.7312 27.3215 25.7312C23.055 25.7312 18.762 25.7312 14.4955 25.7312C14.3365 25.7312 14.204 25.7312 13.939 25.7312C14.0715 25.5457 14.151 25.4662 14.2305 25.3602C14.787 24.7772 15.37 24.2207 15.9265 23.6377C16.4565 23.1077 16.4565 22.4452 15.9795 21.9682C15.5025 21.5177 14.84 21.5177 14.3365 22.0212C12.9585 23.3727 11.554 24.6977 10.2025 26.0492C9.67248 26.5792 9.72548 27.1887 10.282 27.7187C11.6335 29.0437 12.985 30.3952 14.3365 31.7467C14.84 32.2237 15.37 32.3032 15.847 31.9587C16.483 31.5082 16.5625 30.7662 16.0325 30.1832C15.476 29.6002 14.9195 29.0437 14.363 28.4872C14.257 28.3812 14.1775 28.2752 14.0715 28.1692C14.0185 28.1427 14.0185 28.1162 14.045 28.0632Z" fill="#575757"/>
</svg>
