<svg width="29" height="25" viewBox="0 0 29 25" fill="none" xmlns="http://www.w3.org/2000/svg">
<path d="M27.626 16.4822C25.592 15.0962 24.476 14.3582 23.396 13.6382C22.262 12.8822 21.182 12.1622 19.094 10.7402L17.438 9.62417C17.888 8.95817 18.32 8.34616 18.752 7.71616C19.526 7.80616 20.192 7.46416 20.498 6.78016C20.84 6.02416 20.588 5.19616 19.886 4.71016C17.96 3.39616 15.998 2.04616 13.856 0.588164C13.136 0.102164 12.236 0.210164 11.66 0.858164C11.192 1.39816 11.12 2.11816 11.462 2.73016L6.67397 9.75016C5.95397 9.66016 5.30597 9.98417 4.98197 10.6322C4.60397 11.4062 4.83797 12.2522 5.61197 12.7742C5.82797 12.9182 6.04397 13.0802 6.25997 13.2242L8.00597 14.4122C9.19397 15.2222 10.4 16.0502 11.588 16.8602C12.272 17.3282 13.19 17.2382 13.748 16.6442C14.252 16.1042 14.324 15.3482 13.982 14.7002L15.296 12.7742C17.042 13.9622 18.014 14.6102 18.95 15.2222C19.94 15.8702 20.948 16.5542 22.91 17.8862L23.774 18.4802C24.368 18.8942 24.962 19.2902 25.556 19.7042C25.916 19.9562 26.294 20.0822 26.672 20.0822C26.96 20.0822 27.248 20.0102 27.536 19.8662C28.184 19.5242 28.562 18.9482 28.58 18.2102C28.598 17.4902 28.274 16.9322 27.626 16.4822ZM12.614 1.66816C12.758 1.50616 12.956 1.48816 13.136 1.61416C15.278 3.07216 17.24 4.40416 19.166 5.73616C19.292 5.80816 19.454 5.98816 19.346 6.24016C19.256 6.43816 19.076 6.49216 18.806 6.43816C18.788 6.43816 18.77 6.43816 18.734 6.42016L12.758 2.35216C12.722 2.31616 12.704 2.26216 12.668 2.22616C12.488 2.02816 12.47 1.83016 12.614 1.66816ZM12.848 15.7802C12.704 15.9242 12.506 15.9422 12.308 15.8162C11.12 15.0062 9.91397 14.1782 8.72597 13.3682L6.97997 12.1802C6.76397 12.0362 6.54797 11.8922 6.34997 11.7482C5.98997 11.4962 6.07997 11.2802 6.13397 11.1902C6.18797 11.1002 6.27797 10.9022 6.70997 11.0462C6.76397 11.0642 6.81797 11.0642 6.85397 11.0822L12.776 15.1502L12.794 15.1682C12.812 15.2042 12.848 15.2402 12.866 15.2762C12.992 15.4202 12.992 15.6362 12.848 15.7802ZM26.96 18.7142C26.798 18.8042 26.582 18.8582 26.276 18.6422C25.682 18.2462 25.088 17.8322 24.494 17.4362L23.63 16.8422C21.668 15.4922 20.642 14.8262 19.652 14.1602C18.662 13.5122 17.654 12.8282 15.71 11.5142C15.656 11.4782 15.602 11.4422 15.53 11.4062L15.458 11.3702C15.35 11.3162 15.242 11.2802 15.134 11.2802C14.936 11.2802 14.738 11.3702 14.612 11.5502L12.92 14.0342L7.69997 10.4882L12.578 3.32416L17.762 6.92417C17.294 7.59017 16.844 8.25617 16.394 8.92216L16.034 9.44417C15.944 9.58817 15.908 9.75016 15.926 9.91216C15.944 10.0742 16.052 10.2182 16.196 10.3082L18.374 11.7842C20.462 13.2062 21.596 13.9622 22.694 14.6822C23.774 15.4022 24.89 16.1402 26.924 17.5262C27.266 17.7602 27.338 17.9402 27.338 18.1562C27.302 18.4262 27.212 18.5882 26.96 18.7142Z" fill="#F97A1C"/>
<path d="M19.4179 18.7863C18.8959 17.9403 18.0859 17.5083 16.9879 17.5083C13.7659 17.5083 10.5259 17.5083 7.30386 17.5083H3.54186C3.43386 17.5083 3.32586 17.5083 3.21786 17.5083C1.84986 17.5983 0.769859 18.6603 0.715859 19.9743C0.679859 20.8923 0.679859 21.8463 0.697859 22.7463C0.697859 23.1423 0.697859 23.5383 0.697859 23.9343V24.5643H19.8139V23.9343C19.8139 23.5743 19.8139 23.2323 19.8139 22.8723C19.8139 21.9003 19.8139 20.8923 19.7959 19.9023C19.8139 19.5603 19.6699 19.1823 19.4179 18.7863ZM18.5719 22.8723C18.5719 23.0163 18.5719 23.1603 18.5719 23.3043H1.97586C1.97586 23.1063 1.97586 22.9263 1.97586 22.7283C1.97586 21.7923 1.95786 20.9103 1.99386 20.0103C2.02986 19.3443 2.58786 18.8043 3.32586 18.7503C3.39786 18.7503 3.48786 18.7503 3.55986 18.7503H7.32186C10.5439 18.7503 13.7839 18.7503 17.0059 18.7503C17.6539 18.7503 18.0679 18.9663 18.3559 19.4343C18.5359 19.7403 18.5539 19.9023 18.5539 19.9383C18.5719 20.9103 18.5719 21.9183 18.5719 22.8723Z" fill="#F97A1C"/>
</svg>
