<svg width="34" height="35" viewBox="0 0 34 35" fill="none" xmlns="http://www.w3.org/2000/svg">
<path d="M7.65 19.81C7.361 19.775 7.089 19.775 6.851 19.74C5.219 19.4075 4.52201 17.3775 5.61 16.0825C6.137 15.435 6.749 14.875 7.327 14.28C10.013 11.515 12.699 8.75001 15.385 5.98501C16.405 4.93501 17.748 4.93501 18.768 5.98501C21.709 8.99501 24.65 12.0225 27.591 15.05C27.863 15.33 28.118 15.5925 28.39 15.8725C29.07 16.6075 29.257 17.465 28.9 18.41C28.577 19.25 27.778 19.775 26.826 19.7925C26.724 19.7925 26.639 19.7925 26.503 19.7925C26.503 19.9325 26.503 20.0375 26.503 20.1425C26.503 22.435 26.503 24.7275 26.503 27.0375C26.503 28.7525 25.415 29.8725 23.749 29.8725C22.576 29.8725 21.386 29.8725 20.213 29.8725C19.652 29.8725 19.38 29.5925 19.38 29.015C19.38 27.16 19.38 25.3225 19.38 23.4675C19.38 22.61 18.904 22.12 18.071 22.1025C17.408 22.1025 16.728 22.1025 16.065 22.1025C15.249 22.1025 14.773 22.61 14.773 23.45C14.773 25.27 14.773 27.1075 14.773 28.9275C14.773 29.61 14.535 29.855 13.872 29.855C12.699 29.855 11.526 29.855 10.37 29.855C8.772 29.855 7.667 28.7175 7.667 27.055C7.667 24.745 7.667 22.435 7.667 20.1425C7.65 20.055 7.65 19.9325 7.65 19.81Z" fill="#F97A1C"/>
</svg>
