<svg width="122" height="122" viewBox="0 0 122 122" fill="none" xmlns="http://www.w3.org/2000/svg">
<g clip-path="url(#clip0_1_2)">
<path d="M61.11 0.688499C95.403 1.0105 121.324 28.461 121.243 61.144C121.163 94.31 94.3565 121.197 60.8685 121.117C27.5415 121.036 0.413 93.988 0.896 60.017C1.379 27.0925 28.105 0.929999 61.11 0.688499ZM35.9135 30.071C35.672 30.071 35.5915 30.1515 35.511 30.1515C31.4055 29.9905 28.427 31.9225 26.4145 35.384C24.9655 37.96 24.724 40.697 24.724 43.595C24.724 47.2175 25.7705 50.4375 27.783 53.3355C30.2785 56.958 33.579 59.534 38.248 59.4535C38.409 59.4535 38.6505 59.695 38.731 59.856C40.502 62.9955 42.434 66.0545 45.2515 68.389C52.3355 74.2655 60.2245 76.1975 68.999 72.9775C75.439 70.643 79.947 66.135 83.006 60.0975C83.2475 59.6145 83.489 59.4535 83.972 59.534C86.3065 59.695 88.319 58.89 90.1705 57.602C96.1275 53.577 98.945 44.4805 96.369 37.5575C94.759 33.0495 90.734 29.6685 85.743 30.232C85.743 29.9905 85.743 29.6685 85.743 29.427C85.743 27.334 85.743 25.1605 85.743 23.0675C85.743 21.2965 84.8575 20.25 83.006 20.1695C81.718 20.089 80.43 20.1695 79.0615 20.1695C66.745 20.1695 54.348 20.1695 42.0315 20.1695C40.9045 20.1695 39.7775 20.089 38.731 20.1695C36.8795 20.25 35.833 21.377 35.7525 23.2285C35.7525 24.5165 35.7525 25.724 35.7525 27.012C35.9135 27.978 35.9135 29.0245 35.9135 30.071ZM56.441 78.21C56.441 78.4515 56.3605 78.6125 56.3605 78.7735C56.3605 81.752 56.3605 84.811 56.441 87.7895C56.441 88.353 56.28 88.514 55.7165 88.514C53.9455 88.514 52.1745 88.514 50.4035 88.514C48.9545 88.514 48.1495 88.997 47.747 90.3655C47.0225 93.022 46.298 95.598 45.654 98.2545C45.332 99.784 46.0565 100.991 47.425 101.474C48.069 101.635 48.713 101.635 49.357 101.635C56.5215 101.635 63.7665 101.635 70.931 101.555C71.897 101.555 72.863 101.635 73.829 101.555C75.8415 101.394 76.888 99.8645 76.405 97.9325C76.244 97.369 76.083 96.8055 75.922 96.1615C75.3585 94.149 74.8755 92.217 74.2315 90.285C73.829 88.997 72.863 88.4335 71.575 88.4335C69.965 88.4335 68.2745 88.4335 66.6645 88.4335C66.0205 88.4335 65.8595 88.2725 65.8595 87.6285C65.8595 84.7305 65.8595 81.752 65.8595 78.854C65.8595 78.21 65.6985 78.1295 65.135 78.21C63.4445 78.371 61.8345 78.532 60.144 78.532C58.856 78.6125 57.6485 78.371 56.441 78.21Z" fill="white"/>
<path d="M67.228 47.137C68.194 50.035 69.0795 52.8525 69.965 55.67C70.0455 55.992 69.965 56.5555 69.804 56.7165C69.5625 56.8775 69.0795 56.797 68.7575 56.5555C66.423 55.026 64.169 53.416 61.915 51.806C61.432 51.484 61.1905 51.4035 60.627 51.806C58.4535 53.3355 56.28 54.865 54.187 56.314C54.026 56.475 53.7845 56.636 53.543 56.7165C53.3015 56.797 52.8185 56.8775 52.738 56.797C52.577 56.636 52.416 56.153 52.4965 55.9115C52.8185 54.704 53.1405 53.577 53.4625 52.45C53.9455 50.84 54.4285 49.23 54.9115 47.7005C55.0725 47.298 54.9115 47.137 54.5895 46.8955C52.577 45.366 50.5645 43.8365 48.552 42.307C48.23 42.0655 47.908 41.824 47.586 41.502C47.425 41.2605 47.264 40.858 47.3445 40.6165C47.425 40.4555 47.8275 40.214 48.069 40.214C50.7255 40.1335 53.3015 40.053 55.958 40.053C57.1655 40.053 57.1655 40.1335 57.568 38.926C58.373 36.672 59.178 34.3375 59.9025 32.0835C59.983 31.9225 59.983 31.7615 60.0635 31.681C60.305 31.359 60.627 30.7955 60.8685 30.715C61.432 30.6345 61.593 31.198 61.8345 31.7615C62.72 34.3375 63.6055 36.833 64.491 39.409C64.652 39.892 64.974 40.053 65.457 40.053C68.194 40.053 71.0115 40.1335 73.7485 40.214C74.0705 40.214 74.473 40.536 74.795 40.697C74.634 41.019 74.473 41.502 74.2315 41.7435C71.9775 43.5145 69.7235 45.205 67.4695 46.8955C67.4695 46.8955 67.3085 46.976 67.228 47.137Z" fill="white"/>
<path d="M85.1795 54.7845C85.1795 54.6235 85.1795 54.4625 85.1795 54.382C85.9845 51.967 86.065 49.4715 86.065 46.8955C86.065 43.112 86.065 39.409 86.065 35.6255C86.065 34.9815 86.387 34.8205 86.9505 34.8205C89.124 34.901 90.573 36.1085 91.539 37.8795C93.5515 41.985 93.2295 46.0905 90.895 49.9545C89.607 52.2085 87.836 53.9795 85.1795 54.7845Z" fill="white"/>
<path d="M37.2015 54.9455C36.316 54.543 35.672 54.221 35.028 53.8185C32.291 52.128 30.842 49.552 30.037 46.5735C29.3125 43.756 29.3125 40.9385 30.52 38.282C31.4055 36.35 32.6935 34.9815 34.9475 34.74C36.0745 34.6595 36.2355 34.74 36.2355 35.867C36.2355 39.9725 36.2355 44.078 36.2355 48.103C36.2355 50.1155 36.3965 52.0475 37.0405 53.9795C37.0405 54.3015 37.0405 54.543 37.2015 54.9455Z" fill="white"/>
</g>
<defs>
<clipPath id="clip0_1_2">
<rect width="122" height="122" fill="white"/>
</clipPath>
</defs>
</svg>
