<svg width="86" height="33" viewBox="0 0 86 33" fill="none" xmlns="http://www.w3.org/2000/svg">
<path d="M20 6H75C81.0751 6 86 10.9249 86 17V17C86 23.0751 81.0751 28 75 28H20V6Z" fill="white" fill-opacity="0.6"/>
<ellipse cx="16.2536" cy="16.7571" rx="13.9266" ry="12.0697" fill="#F97A1C"/>
<path d="M10.6086 14.8631C10.6086 14.1204 10.1258 13.7119 9.27168 13.7119H7.52621V15.9773H9.27168C10.1258 15.9773 10.6086 15.6059 10.6086 14.8631Z" fill="white"/>
<path d="M9.42023 17.9084H7.52621V20.3224H9.45736C10.3487 20.3224 10.8315 19.9139 10.8315 19.134C10.8686 18.3541 10.3115 17.9084 9.42023 17.9084Z" fill="white"/>
<path d="M23.4953 13.8605H22.2326V20.1367H23.4953C25.5007 20.1367 26.652 18.9854 26.652 17.0171C26.652 15.0489 25.4636 13.8605 23.4953 13.8605Z" fill="white"/>
<path d="M16.2907 0.973774C7.26629 0.936636 0.470123 8.25272 0.470123 16.6829C0.470123 25.4102 7.41484 32.4292 16.1793 32.4664C24.6095 32.5406 31.9627 25.8188 31.9999 16.7572C32.037 8.0299 25.1666 1.01091 16.2907 0.973774ZM9.94018 22.4392H4.88949V11.5951H9.7545C11.9456 11.5951 13.2826 12.6721 13.2826 14.4175C13.2826 15.7174 12.5027 16.5715 11.4628 16.8686C12.7255 17.1286 13.5425 18.2427 13.5425 19.4682C13.5054 21.288 12.2056 22.4392 9.94018 22.4392ZM17.7019 22.4392H15.0652V11.5951H17.7019V22.4392ZM23.6439 22.4392H19.5959V11.5951H23.6439C27.0977 11.5951 29.326 13.7862 29.326 17.0172C29.326 20.211 27.0977 22.4392 23.6439 22.4392Z" fill="white"/>
</svg>
