<svg width="88" height="81" viewBox="0 0 88 81" fill="none" xmlns="http://www.w3.org/2000/svg">
<path d="M88 0L12 0C5.37258 0 -3.69549e-06 5.37258 -3.69549e-06 12V81L88 0Z" fill="#F41515"/>
<path d="M14.0407 35.8415L6.18182 27.26L9.46693 24.2515C10.0871 23.6836 10.692 23.3094 11.2817 23.1289C11.8717 22.943 12.4221 22.9243 12.933 23.0727C13.4467 23.2187 13.898 23.5039 14.2869 23.9285C14.6066 24.2777 14.8133 24.638 14.9069 25.0094C14.998 25.378 15.0007 25.7428 14.9151 26.1036C14.8296 26.4645 14.6778 26.8063 14.4599 27.1292L14.5366 27.213C14.8564 26.9509 15.2341 26.7772 15.6695 26.6918C16.1051 26.601 16.553 26.6274 17.0132 26.7709C17.4734 26.9145 17.903 27.2041 18.3021 27.6399C18.7089 28.0841 18.9671 28.582 19.0769 29.1338C19.1842 29.6828 19.1147 30.2575 18.8684 30.8579C18.6222 31.4584 18.1709 32.0592 17.5144 32.6604L14.0407 35.8415ZM14.4057 33.1189L16.0776 31.5878C16.6419 31.071 16.9498 30.5913 17.0015 30.1485C17.0533 29.7004 16.9232 29.3059 16.6111 28.9651C16.3783 28.7109 16.1057 28.5394 15.7932 28.4506C15.4782 28.359 15.1511 28.3607 14.8117 28.4557C14.4699 28.5479 14.1383 28.7411 13.8171 29.0353L12.1033 30.6048L14.4057 33.1189ZM11.0787 29.486L12.6165 28.0777C12.8847 27.8321 13.0816 27.5619 13.2071 27.2672C13.3301 26.9696 13.3699 26.6738 13.3266 26.3797C13.2834 26.0802 13.1467 25.8047 12.9165 25.5533C12.6121 25.2209 12.244 25.0546 11.8124 25.0544C11.3836 25.0516 10.9401 25.26 10.4819 25.6795L8.91061 27.1186L11.0787 29.486ZM24.6931 26.3173C24.0479 26.9082 23.3678 27.2845 22.6529 27.4461C21.9382 27.6024 21.2288 27.5484 20.5246 27.2842C19.8178 27.0172 19.1561 26.5471 18.5396 25.8739C17.9333 25.2118 17.5269 24.5156 17.3204 23.7854C17.1141 23.0497 17.1107 22.3338 17.3102 21.6374C17.5072 20.9383 17.9129 20.3073 18.5275 19.7445C18.9242 19.3812 19.3573 19.1027 19.827 18.9088C20.2969 18.7097 20.7888 18.6187 21.3028 18.6359C21.8196 18.6506 22.3442 18.7916 22.8767 19.059C23.4067 19.3236 23.93 19.738 24.4468 20.3023L24.8727 20.7674L19.5973 25.5986L18.661 24.5762L22.4824 21.0765C22.2136 20.7886 21.9141 20.5877 21.584 20.474C21.2513 20.3575 20.9145 20.3347 20.5735 20.4055C20.2354 20.4737 19.9211 20.6409 19.6306 20.907C19.3205 21.1909 19.1172 21.5158 19.0207 21.8815C18.9216 22.2445 18.9177 22.6076 19.009 22.9708C19.1005 23.3288 19.2766 23.6529 19.5373 23.9431L20.3547 24.8356C20.6975 25.21 21.0601 25.4685 21.4426 25.6114C21.8225 25.7514 22.2006 25.7801 22.5769 25.6974C22.9506 25.612 23.3023 25.4183 23.632 25.1164C23.8526 24.9143 24.0242 24.7007 24.1467 24.4755C24.2667 24.2475 24.336 24.012 24.3547 23.7688C24.3735 23.5257 24.3332 23.2826 24.234 23.0396L25.7961 21.9018C26.0495 22.358 26.1784 22.8409 26.1828 23.3505C26.1875 23.8547 26.066 24.3615 25.8184 24.8707C25.5683 25.3771 25.1932 25.8593 24.6931 26.3173ZM29.4739 13.002L28.2292 14.4191C28.0622 14.3153 27.8735 14.2467 27.6632 14.2133C27.4557 14.1774 27.2364 14.1959 27.0053 14.2688C26.7742 14.3418 26.5413 14.4857 26.3066 14.7006C25.991 14.9897 25.7883 15.3012 25.6985 15.635C25.6116 15.9663 25.6693 16.2396 25.8716 16.455C26.0402 16.6447 26.2481 16.7343 26.4952 16.7237C26.7451 16.7105 27.068 16.592 27.4639 16.3681L28.7767 15.5974C29.5059 15.171 30.149 14.9647 30.7061 14.9784C31.2659 14.9896 31.7583 15.2244 32.1832 15.6828C32.5513 16.0904 32.7601 16.5567 32.8094 17.0816C32.8589 17.6013 32.7563 18.137 32.5015 18.6888C32.2466 19.2406 31.8511 19.7621 31.3147 20.2533C30.5269 20.9747 29.7419 21.3906 28.9595 21.501C28.1746 21.6086 27.4649 21.4085 26.8304 20.9007L28.1791 19.4036C28.5122 19.6328 28.8555 19.7216 29.2089 19.6701C29.5624 19.6186 29.9137 19.433 30.2629 19.1132C30.6233 18.7832 30.8446 18.4444 30.9269 18.0968C31.012 17.7466 30.9548 17.4626 30.7552 17.2447C30.5864 17.0603 30.3757 16.9733 30.1233 16.9837C29.8736 16.9915 29.5713 17.0988 29.2163 17.3058L27.9074 18.0807C27.1724 18.5176 26.5174 18.7193 25.9425 18.686C25.3649 18.6499 24.8627 18.3959 24.4357 17.9241C24.0696 17.5299 23.8625 17.0879 23.8144 16.5978C23.7664 16.1024 23.8651 15.596 24.1104 15.0786C24.3559 14.5559 24.7356 14.0591 25.2496 13.5884C26.0038 12.8977 26.7446 12.5147 27.4717 12.4394C28.2017 12.3616 28.8691 12.5491 29.4739 13.002ZM32.5188 7.08542L33.5933 8.25867L29.8933 11.6471L28.8189 10.4738L32.5188 7.08542ZM28.3202 8.09526L29.8371 6.70614L35.3705 12.7484C35.5573 12.9523 35.7313 13.0806 35.8925 13.1333C36.054 13.1806 36.2043 13.1765 36.3434 13.1209C36.4826 13.0654 36.6151 12.9801 36.7408 12.8649C36.8357 12.778 36.9159 12.6917 36.9814 12.6061C37.0496 12.5179 37.0995 12.4491 37.1312 12.3995L38.4728 13.3513C38.4173 13.4534 38.3296 13.5903 38.2094 13.7619C38.0921 13.9311 37.9284 14.1169 37.7184 14.3195C37.3487 14.6786 36.9541 14.9347 36.5345 15.0878C36.1123 15.2382 35.689 15.2611 35.2647 15.1567C34.8431 15.0497 34.4495 14.7938 34.0839 14.3889L28.3202 8.09526ZM21.1732 39.5643C20.7989 39.2342 20.3732 39.1002 19.8959 39.1623C19.4214 39.2219 18.9537 39.4627 18.4928 39.8848C18.1687 40.1816 17.9356 40.485 17.7932 40.7951C17.6509 41.1052 17.5951 41.4004 17.6256 41.6805C17.6562 41.9607 17.7686 42.2096 17.9628 42.4273C18.1265 42.606 18.309 42.724 18.5103 42.7811C18.7143 42.8356 18.9298 42.8438 19.1567 42.8055C19.381 42.7644 19.6079 42.6953 19.8374 42.5981C20.0668 42.501 20.2888 42.3928 20.5031 42.2735L21.4918 41.7379C21.8849 41.5165 22.2898 41.3332 22.7064 41.188C23.1257 41.0402 23.5437 40.9554 23.9602 40.9335C24.3795 40.909 24.7857 40.9711 25.1786 41.1197C25.5715 41.2684 25.9381 41.5285 26.2784 41.9C26.7389 42.4028 27.0158 42.9633 27.1093 43.5813C27.2002 44.1966 27.1012 44.8343 26.8121 45.4946C26.5232 46.1494 26.0352 46.7915 25.348 47.4209C24.6804 48.0323 24.0061 48.4598 23.3251 48.7033C22.647 48.9443 21.988 48.9931 21.3481 48.8497C20.7111 48.7037 20.1205 48.356 19.5763 47.8066L21.1057 46.406C21.4018 46.6844 21.7216 46.8486 22.0653 46.8986C22.4089 46.9485 22.7554 46.9034 23.1048 46.7633C23.4569 46.6206 23.795 46.4008 24.119 46.1041C24.457 45.7945 24.7071 45.4731 24.8692 45.1397C25.0315 44.801 25.1022 44.4744 25.0812 44.1597C25.0576 43.8423 24.9346 43.5595 24.7123 43.3111C24.5048 43.0902 24.2704 42.9659 24.0088 42.9383C23.7447 42.908 23.452 42.95 23.1306 43.0646C22.8094 43.1738 22.4594 43.33 22.0805 43.5332L20.8739 44.1759C20.0009 44.6416 19.1902 44.878 18.4419 44.8854C17.6938 44.8873 17.0384 44.581 16.4755 43.9665C16.0125 43.4609 15.7439 42.8927 15.6697 42.2621C15.5984 41.629 15.7042 40.9902 15.9872 40.3458C16.2677 39.6985 16.7082 39.0999 17.3088 38.5499C17.9178 37.9922 18.5486 37.6097 19.2011 37.4025C19.8539 37.1899 20.483 37.1505 21.0884 37.2844C21.6912 37.4154 22.2181 37.7188 22.6691 38.1944L21.1732 39.5643ZM31.7747 41.5353C31.3669 41.9088 30.933 42.1726 30.4732 42.3267C30.0135 42.4754 29.557 42.4928 29.1036 42.3791C28.6529 42.2627 28.2344 41.9937 27.8481 41.5719C27.5156 41.2087 27.3076 40.847 27.2242 40.4868C27.1409 40.1265 27.1499 39.769 27.2513 39.4142C27.3526 39.0594 27.5153 38.7127 27.7393 38.374C27.9636 38.0299 28.2168 37.6979 28.499 37.3779C28.8403 36.9934 29.1142 36.6783 29.3207 36.4327C29.5246 36.1843 29.649 35.978 29.6937 35.8137C29.7387 35.6441 29.6947 35.4867 29.5617 35.3414L29.5387 35.3163C29.2496 35.0006 28.9322 34.8419 28.5864 34.8401C28.2406 34.8383 27.8917 34.9986 27.5398 35.3209C27.1682 35.6612 26.9477 36.0121 26.8782 36.3736C26.8115 36.7326 26.8414 37.057 26.9681 37.3468L25.3676 38.4427C25.1212 37.9492 25.0063 37.4536 25.0228 36.9556C25.0368 36.4549 25.1694 35.9687 25.4207 35.4972C25.6694 35.0229 26.0187 34.5798 26.4684 34.1679C26.7785 33.8839 27.1204 33.6376 27.4942 33.4288C27.868 33.22 28.2588 33.083 28.6665 33.0178C29.0716 32.9499 29.4815 32.988 29.8961 33.1322C30.3134 33.2739 30.7178 33.5584 31.1092 33.9858L35.054 38.2933L33.5958 39.6287L32.7862 38.7446L32.7359 38.7907C32.8074 39.0539 32.831 39.3404 32.8067 39.6504C32.7826 39.9549 32.6883 40.2698 32.5239 40.595C32.3597 40.9149 32.11 41.2283 31.7747 41.5353ZM31.1479 40.06C31.4524 39.7812 31.6614 39.4794 31.7748 39.1546C31.8857 38.827 31.9092 38.5077 31.8451 38.1965C31.7838 37.8828 31.6444 37.6073 31.427 37.3698L30.7324 36.6114C30.7208 36.694 30.673 36.8045 30.5892 36.9429C30.5081 37.0788 30.4093 37.2232 30.2926 37.3763C30.176 37.5293 30.0582 37.6783 29.9392 37.8232C29.8202 37.9681 29.7169 38.0936 29.6291 38.1997C29.431 38.4376 29.2745 38.6734 29.1597 38.9069C29.0448 39.1405 28.9933 39.3675 29.0051 39.5878C29.0143 39.8054 29.1084 40.0119 29.2875 40.2075C29.5433 40.4868 29.8384 40.6044 30.1728 40.5601C30.5072 40.5158 30.8322 40.3491 31.1479 40.06ZM30.2372 26.9259L38.0961 35.5074L36.5793 36.8965L28.7204 28.315L30.2372 26.9259ZM42.6204 31.5953C41.9751 32.1862 41.295 32.5625 40.5801 32.7241C39.8654 32.8804 39.156 32.8264 38.4518 32.5622C37.745 32.2952 37.0834 31.8251 36.4668 31.1519C35.8605 30.4898 35.4541 29.7937 35.2476 29.0634C35.0413 28.3278 35.0379 27.6118 35.2374 26.9154C35.4344 26.2163 35.8402 25.5853 36.4547 25.0225C36.8514 24.6593 37.2846 24.3807 37.7542 24.1869C38.2241 23.9877 38.716 23.8967 39.23 23.9139C39.7468 23.9286 40.2715 24.0696 40.804 24.337C41.3339 24.6016 41.8573 25.016 42.374 25.5803L42.8 26.0454L37.5245 30.8766L36.5882 29.8542L40.4097 26.3546C40.1408 26.0666 39.8413 25.8658 39.5112 25.7521C39.1785 25.6356 38.8417 25.6127 38.5008 25.6835C38.1626 25.7518 37.8483 25.9189 37.5578 26.185C37.2477 26.4689 37.0444 26.7938 36.9479 27.1595C36.8489 27.5225 36.845 27.8856 36.9362 28.2488C37.0278 28.6068 37.2039 28.9309 37.4646 29.2212L38.2819 30.1137C38.6247 30.488 38.9874 30.7466 39.3698 30.8894C39.7497 31.0294 40.1279 31.0581 40.5041 30.9754C40.8779 30.89 41.2296 30.6963 41.5592 30.3944C41.7799 30.1923 41.9515 29.9787 42.074 29.7535C42.1939 29.5255 42.2632 29.29 42.282 29.0468C42.3007 28.8037 42.2605 28.5606 42.1612 28.3176L43.7233 27.1798C43.9767 27.636 44.1056 28.1189 44.1101 28.6285C44.1147 29.1327 43.9932 29.6395 43.7456 30.1487C43.4955 30.6552 43.1204 31.1373 42.6204 31.5953ZM47.4011 18.28L46.1565 19.6972C45.9895 19.5933 45.8008 19.5247 45.5904 19.4913C45.3829 19.4554 45.1636 19.4739 44.9325 19.5468C44.7014 19.6198 44.4685 19.7637 44.2339 19.9786C43.9182 20.2677 43.7155 20.5792 43.6258 20.913C43.5388 21.2443 43.5965 21.5177 43.7989 21.733C43.9675 21.9227 44.1753 22.0123 44.4224 22.0017C44.6724 21.9885 44.9953 21.87 45.3912 21.6461L46.7039 20.8754C47.4331 20.449 48.0762 20.2427 48.6333 20.2564C49.1931 20.2676 49.6855 20.5024 50.1104 20.9608C50.4786 21.3684 50.6873 21.8347 50.7366 22.3597C50.7861 22.8793 50.6835 23.415 50.4287 23.9668C50.1739 24.5186 49.7783 25.0401 49.2419 25.5313C48.4542 26.2527 47.6691 26.6686 46.8868 26.779C46.1019 26.8866 45.3922 26.6865 44.7576 26.1787L46.1063 24.6817C46.4394 24.9108 46.7827 24.9996 47.1362 24.9481C47.4896 24.8966 47.841 24.711 48.1902 24.3912C48.5505 24.0612 48.7718 23.7224 48.8541 23.3748C48.9392 23.0246 48.882 22.7406 48.6825 22.5227C48.5136 22.3384 48.303 22.2513 48.0505 22.2617C47.8008 22.2695 47.4985 22.3768 47.1436 22.5838L45.8347 23.3587C45.0996 23.7956 44.4446 23.9973 43.8697 23.964C43.2922 23.9279 42.7899 23.6739 42.3629 23.2021C41.9969 22.808 41.7898 22.3659 41.7416 21.8758C41.6937 21.3804 41.7923 20.874 42.0376 20.3566C42.2831 19.8339 42.6628 19.3372 43.1768 18.8664C43.9311 18.1757 44.6718 17.7927 45.399 17.7174C46.129 17.6396 46.7963 17.8271 47.4011 18.28Z" fill="white"/>
</svg>
