<svg width="35" height="35" viewBox="0 0 35 35" fill="none" xmlns="http://www.w3.org/2000/svg">
<path d="M30.7475 21.8575C28.77 20.51 27.685 19.7925 26.635 19.0925C25.5325 18.3575 24.4825 17.6575 22.4525 16.275L20.8425 15.19C21.28 14.5425 21.7 13.9475 22.12 13.335C22.8725 13.4225 23.52 13.09 23.8175 12.425C24.15 11.69 23.905 10.885 23.2225 10.4125C21.35 9.13497 19.4425 7.82247 17.36 6.40497C16.66 5.93247 15.785 6.03747 15.225 6.66747C14.77 7.19247 14.7 7.89247 15.0325 8.48747L10.3775 15.3125C9.67754 15.225 9.04754 15.54 8.73254 16.17C8.36504 16.9225 8.59254 17.745 9.34504 18.2525C9.55504 18.3925 9.76504 18.55 9.97504 18.69L11.6725 19.845C12.8275 20.6325 14 21.4375 15.155 22.225C15.82 22.68 16.7125 22.5925 17.255 22.015C17.745 21.49 17.815 20.755 17.4825 20.125L18.76 18.2525C20.4575 19.4075 21.4025 20.0375 22.3125 20.6325C23.275 21.2625 24.255 21.9275 26.1625 23.2225L27.0025 23.8C27.58 24.2025 28.1575 24.5875 28.735 24.99C29.085 25.235 29.4525 25.3575 29.82 25.3575C30.1 25.3575 30.38 25.2875 30.66 25.1475C31.29 24.815 31.6575 24.255 31.675 23.5375C31.6925 22.8375 31.3775 22.295 30.7475 21.8575ZM16.1525 7.45497C16.2925 7.29747 16.485 7.27997 16.66 7.40247C18.7425 8.81997 20.65 10.115 22.5225 11.41C22.645 11.48 22.8025 11.655 22.6975 11.9C22.61 12.0925 22.435 12.145 22.1725 12.0925C22.155 12.0925 22.1375 12.0925 22.1025 12.075L16.2925 8.11997C16.2575 8.08497 16.24 8.03247 16.205 7.99747C16.03 7.80497 16.0125 7.61247 16.1525 7.45497ZM16.38 21.175C16.24 21.315 16.0475 21.3325 15.855 21.21C14.7 20.4225 13.5275 19.6175 12.3725 18.83L10.675 17.675C10.465 17.535 10.255 17.395 10.0625 17.255C9.71254 17.01 9.80004 16.8 9.85254 16.7125C9.90504 16.625 9.99254 16.4325 10.4125 16.5725C10.465 16.59 10.5175 16.59 10.5525 16.6075L16.31 20.5625L16.3275 20.58C16.345 20.615 16.38 20.65 16.3975 20.685C16.52 20.825 16.52 21.035 16.38 21.175ZM30.1 24.0275C29.9425 24.115 29.7325 24.1675 29.435 23.9575C28.8575 23.5725 28.28 23.17 27.7025 22.785L26.8625 22.2075C24.955 20.895 23.9575 20.2475 22.995 19.6C22.0325 18.97 21.0525 18.305 19.1625 17.0275C19.11 16.9925 19.0575 16.9575 18.9875 16.9225L18.9175 16.8875C18.8125 16.835 18.7075 16.8 18.6025 16.8C18.41 16.8 18.2175 16.8875 18.095 17.0625L16.45 19.4775L11.375 16.03L16.1175 9.06497L21.1575 12.565C20.7025 13.2125 20.265 13.86 19.8275 14.5075L19.4775 15.015C19.39 15.155 19.355 15.3125 19.3725 15.47C19.39 15.6275 19.495 15.7675 19.635 15.855L21.7525 17.29C23.7825 18.6725 24.885 19.4075 25.9525 20.1075C27.0025 20.8075 28.0875 21.525 30.065 22.8725C30.3975 23.1 30.4675 23.275 30.4675 23.485C30.4325 23.7475 30.345 23.905 30.1 24.0275Z" fill="white"/>
<path d="M22.7675 24.0975C22.26 23.275 21.4725 22.855 20.405 22.855C17.2725 22.855 14.1225 22.855 10.99 22.855H7.33253C7.22753 22.855 7.12252 22.855 7.01752 22.855C5.68752 22.9425 4.63753 23.975 4.58503 25.2525C4.55003 26.145 4.55003 27.0725 4.56753 27.9475C4.56753 28.3325 4.56753 28.7175 4.56753 29.1025V29.715H23.1525V29.1025C23.1525 28.7525 23.1525 28.42 23.1525 28.07C23.1525 27.125 23.1525 26.145 23.135 25.1825C23.1525 24.85 23.0125 24.4825 22.7675 24.0975ZM21.945 28.07C21.945 28.21 21.945 28.35 21.945 28.49H5.81003C5.81003 28.2975 5.81003 28.1225 5.81003 27.93C5.81003 27.02 5.79253 26.1625 5.82753 25.2875C5.86253 24.64 6.40503 24.115 7.12253 24.0625C7.19253 24.0625 7.28003 24.0625 7.35003 24.0625H11.0075C14.14 24.0625 17.29 24.0625 20.4225 24.0625C21.0525 24.0625 21.455 24.2725 21.735 24.7275C21.91 25.025 21.9275 25.1825 21.9275 25.2175C21.945 26.1625 21.945 27.1425 21.945 28.07Z" fill="white"/>
</svg>
