<svg width="34" height="30" viewBox="0 0 34 30" fill="none" xmlns="http://www.w3.org/2000/svg">
<path d="M32.4871 19.5316C30.0342 17.8601 28.6884 16.9701 27.3859 16.1019C26.0184 15.1902 24.716 14.3219 22.1979 12.607L20.2009 11.2612C20.7436 10.458 21.2645 9.71997 21.7855 8.96023C22.7189 9.06876 23.5221 8.65633 23.8911 7.83146C24.3035 6.91976 23.9996 5.92124 23.1531 5.33515C20.8304 3.75053 18.4643 2.12251 15.8812 0.364234C15.0129 -0.221856 13.9276 -0.0916141 13.2329 0.68984C12.6685 1.34105 12.5817 2.20933 12.9942 2.94737L7.22008 11.4131C6.3518 11.3046 5.57034 11.6953 5.17961 12.4768C4.72377 13.4102 5.00596 14.4304 5.93936 15.0599C6.19985 15.2336 6.46033 15.4289 6.72082 15.6026L8.8264 17.0353C10.2591 18.0121 11.7134 19.0106 13.1461 19.9874C13.971 20.5518 15.078 20.4433 15.7509 19.7269C16.3587 19.0757 16.4456 18.164 16.0331 17.3826L17.6178 15.0599C19.7233 16.4926 20.8955 17.274 22.0243 18.0121C23.2182 18.7935 24.4338 19.6184 26.7998 21.2247L27.8418 21.941C28.5581 22.4403 29.2744 22.9179 29.9908 23.4171C30.4249 23.721 30.8808 23.873 31.3366 23.873C31.6839 23.873 32.0312 23.7861 32.3786 23.6125C33.16 23.2001 33.6159 22.5054 33.6376 21.6154C33.6593 20.7472 33.2685 20.0742 32.4871 19.5316ZM14.3834 1.66666C14.5571 1.47129 14.7958 1.44959 15.0129 1.60154C17.596 3.35981 19.9621 4.96613 22.2848 6.57245C22.4367 6.65928 22.6321 6.87635 22.5018 7.18025C22.3933 7.41903 22.1762 7.48415 21.8506 7.41903C21.8289 7.41903 21.8072 7.41903 21.7638 7.39732L14.5571 2.49153C14.5136 2.44811 14.4919 2.38299 14.4485 2.33958C14.2315 2.1008 14.2098 1.86202 14.3834 1.66666ZM14.6656 18.685C14.4919 18.8586 14.2532 18.8804 14.0144 18.7284C12.5817 17.7516 11.1273 16.7531 9.69468 15.7762L7.5891 14.3436C7.32861 14.1699 7.06813 13.9963 6.82935 13.8226C6.39521 13.5187 6.50374 13.2582 6.56887 13.1497C6.63399 13.0412 6.74252 12.8024 7.26349 12.976C7.32861 12.9977 7.39373 12.9977 7.43715 13.0194L14.5788 17.9252L14.6005 17.9469C14.6222 17.9904 14.6656 18.0338 14.6873 18.0772C14.8393 18.2508 14.8393 18.5113 14.6656 18.685ZM31.6839 22.2232C31.4886 22.3318 31.2281 22.3969 30.8591 22.1364C30.1427 21.6589 29.4264 21.1596 28.7101 20.682L27.6681 19.9657C25.3021 18.3377 24.0648 17.5345 22.8709 16.7314C21.677 15.9499 20.4614 15.125 18.117 13.5404C18.0519 13.497 17.9868 13.4536 17.8999 13.4102L17.8131 13.3668C17.6829 13.3016 17.5526 13.2582 17.4224 13.2582C17.1836 13.2582 16.9448 13.3668 16.7929 13.5838L14.7524 16.5794L8.45738 12.3031L14.34 3.66371L20.5916 8.00512C20.0272 8.80828 19.4846 9.61144 18.9419 10.4146L18.5077 11.0441C18.3992 11.2178 18.3558 11.4131 18.3775 11.6085C18.3992 11.8039 18.5295 11.9775 18.7031 12.086L21.3297 13.866C23.8477 15.5809 25.2152 16.4926 26.5394 17.3609C27.8418 18.2291 29.1876 19.1191 31.6405 20.7906C32.0529 21.0728 32.1398 21.2898 32.1398 21.5503C32.0964 21.8759 31.9878 22.0713 31.6839 22.2232Z" fill="#F97A1C"/>
<path d="M22.5896 22.3102C21.9601 21.29 20.9833 20.769 19.6591 20.769C15.7736 20.769 11.8663 20.769 7.98075 20.769H3.44397C3.31373 20.769 3.18349 20.769 3.05325 20.769C1.40351 20.8776 0.101087 22.1583 0.0359655 23.7429C-0.00744863 24.85 -0.00744871 26.0004 0.0142583 27.0858C0.0142583 27.5633 0.0142583 28.0409 0.0142583 28.5185V29.2782H23.0672V28.5185C23.0672 28.0843 23.0672 27.6719 23.0672 27.2377C23.0672 26.0656 23.0672 24.85 23.0454 23.6561C23.0672 23.2436 22.8935 22.7878 22.5896 22.3102ZM21.5694 27.2377C21.5694 27.4114 21.5694 27.5851 21.5694 27.7587H1.55546C1.55546 27.5199 1.55546 27.3029 1.55546 27.0641C1.55546 25.9353 1.53375 24.8717 1.57717 23.7863C1.62058 22.9832 2.2935 22.3319 3.18349 22.2668C3.27032 22.2668 3.37885 22.2668 3.46568 22.2668H8.00246C11.888 22.2668 15.7953 22.2668 19.6809 22.2668C20.4623 22.2668 20.9616 22.5273 21.3089 23.0917C21.5259 23.4607 21.5477 23.6561 21.5477 23.6995C21.5694 24.8717 21.5694 26.0873 21.5694 27.2377Z" fill="#F97A1C"/>
</svg>
