<svg width="34" height="34" viewBox="0 0 34 34" fill="none" xmlns="http://www.w3.org/2000/svg">
<path d="M7.05497 19.7372C6.90197 19.7372 6.78297 19.7372 6.66397 19.7372C5.67797 19.7032 4.94697 19.2442 4.57297 18.3432C4.18197 17.4252 4.35197 16.5412 5.06597 15.8272C7.02097 13.8552 8.99297 11.9002 10.948 9.92821C12.325 8.55121 13.719 7.19121 15.062 5.79721C15.827 4.99821 16.932 4.86221 17.782 5.21921C18.054 5.33821 18.292 5.52521 18.496 5.72921C21.862 9.07821 25.211 12.4272 28.56 15.7762C29.291 16.5072 29.444 17.4082 29.07 18.3262C28.713 19.2612 27.948 19.7032 26.928 19.7202C26.826 19.7202 26.724 19.7202 26.605 19.7202C26.605 19.8562 26.605 19.9752 26.605 20.0772C26.605 22.3892 26.605 24.7012 26.605 27.0132C26.605 28.7302 25.466 29.8692 23.749 29.8692C22.525 29.8692 21.301 29.8692 20.077 29.8692C19.482 29.8692 19.21 29.5972 19.21 29.0022C19.21 27.1492 19.21 25.2962 19.21 23.4432C19.21 22.5422 18.717 22.0492 17.816 22.0492C17.136 22.0492 16.439 22.0492 15.759 22.0492C14.909 22.0492 14.416 22.5422 14.416 23.3922C14.416 25.2282 14.416 27.0812 14.416 28.9172C14.416 29.5972 14.161 29.8522 13.481 29.8522C12.257 29.8522 11.033 29.8522 9.80897 29.8522C8.17697 29.8522 7.03797 28.6962 7.02097 27.0642C7.02097 24.7352 7.02097 22.4062 7.02097 20.0602C7.05497 19.9922 7.05497 19.8902 7.05497 19.7372ZM20.689 28.4412C21.709 28.4412 22.695 28.4412 23.681 28.4412C24.701 28.4412 25.16 27.9822 25.16 26.9792C25.16 24.3612 25.16 21.7602 25.16 19.1422C25.16 18.5642 25.432 18.2922 26.01 18.2922C26.333 18.2922 26.656 18.2922 26.979 18.2922C27.336 18.2922 27.608 18.1222 27.744 17.7992C27.897 17.4592 27.829 17.1532 27.574 16.8812C27.421 16.7112 27.251 16.5582 27.081 16.3882C23.902 13.2092 20.723 10.0302 17.527 6.85121C17.034 6.35821 16.609 6.35821 16.116 6.85121C14.127 8.82321 12.121 10.8292 10.115 12.8352C8.80597 14.1442 7.49697 15.4532 6.18797 16.7622C5.89897 17.0512 5.74597 17.3572 5.91597 17.7652C6.08597 18.1562 6.40897 18.2922 6.81697 18.2922C7.07197 18.2752 7.34397 18.2922 7.59897 18.2922C8.26197 18.2922 8.51697 18.5472 8.51697 19.2102C8.51697 21.8452 8.51697 24.4632 8.51697 27.0982C8.51697 27.9312 9.02697 28.4412 9.85997 28.4582C10.812 28.4582 11.747 28.4582 12.699 28.4582C12.784 28.4582 12.869 28.4412 12.988 28.4412C12.988 28.3052 12.988 28.2032 12.988 28.0842C12.988 26.4522 12.971 24.8032 13.005 23.1712C13.039 21.8622 14.025 20.7912 15.334 20.6722C16.167 20.6042 17 20.6212 17.833 20.6212C19.567 20.6212 20.689 21.7432 20.689 23.4602C20.689 25.0072 20.689 26.5542 20.689 28.1012C20.689 28.2032 20.689 28.3052 20.689 28.4412Z" fill="white"/>
</svg>
