<svg width="49" height="49" viewBox="0 0 49 49" fill="none" xmlns="http://www.w3.org/2000/svg">
<path d="M19.4773 22.9808C19.4773 22.1233 19.4773 21.3148 19.4773 20.4818C19.4773 17.9583 21.2658 15.7778 23.7403 15.2878C26.7048 14.6998 29.5713 16.7088 30.0123 19.7223C30.0613 20.0163 30.0858 20.3348 30.0858 20.6288C30.0858 21.3393 30.0858 22.0498 30.0858 22.7848C30.0858 22.8583 30.0858 22.9318 30.0858 23.0053C30.2328 23.0053 30.3798 23.0053 30.5268 23.0053C31.3598 23.0543 32.0458 23.7158 32.1193 24.5488C32.1438 24.8673 32.1438 25.1858 32.1438 25.5043C32.1438 27.2683 32.1438 29.0323 32.1438 30.7718C32.1438 31.1883 32.0948 31.6048 31.9968 31.9968C31.8008 32.7318 31.2618 33.1728 30.5268 33.3933C29.7673 33.6138 28.9588 33.6873 28.1748 33.7608C26.2638 33.9323 24.3528 33.9323 22.4418 33.8343C21.3638 33.7608 20.2613 33.7118 19.2078 33.4178C18.3258 33.1973 17.7133 32.6828 17.5418 31.7518C17.4928 31.4578 17.4683 31.1638 17.4683 30.8943C17.4683 28.8608 17.4683 26.8273 17.4683 24.7938C17.4683 23.6913 18.3258 22.9563 19.2813 23.0053C19.3303 22.9808 19.3793 22.9808 19.4773 22.9808ZM24.7938 24.8918C23.0298 24.8918 21.2658 24.8918 19.5263 24.8918C19.4038 24.8918 19.3303 24.8918 19.3303 25.0388C19.3303 26.4843 19.3303 27.9298 19.3303 29.3753C19.3303 29.9388 19.3303 30.5268 19.3303 31.0903C19.3303 31.4823 19.4038 31.5558 19.7958 31.6048C20.7268 31.7273 21.6578 31.8498 22.5888 31.8988C24.0588 31.9968 25.5288 31.9968 26.9743 31.8988C27.9298 31.8253 28.8853 31.7028 29.8408 31.5803C30.1348 31.5313 30.2083 31.4578 30.2083 31.1393C30.2083 30.7228 30.2083 30.3308 30.2083 29.9143C30.2083 28.2728 30.2083 26.6313 30.2083 24.9898C30.2083 24.8428 30.1348 24.8428 30.0368 24.8428C28.3218 24.8918 26.5578 24.8918 24.7938 24.8918ZM24.7938 22.9808C25.8718 22.9808 26.9743 22.9808 28.0523 22.9808C28.1748 22.9808 28.2238 22.9563 28.2238 22.8338C28.2238 21.9273 28.2728 20.9963 28.1748 20.1143C28.0033 18.2768 26.4108 16.8068 24.2548 17.1498C22.5643 17.4193 21.4128 18.7913 21.3883 20.4818C21.3638 21.2658 21.3883 22.0498 21.3883 22.8338C21.3883 22.9808 21.4618 22.9808 21.5598 22.9808C22.6378 22.9808 23.7158 22.9808 24.7938 22.9808Z" fill="#575757"/>
<path d="M34.2999 12.6663C34.2509 12.3478 34.2019 12.0538 34.1529 11.7843C34.1039 11.5393 34.0549 11.2698 34.0304 11.0248C33.9569 10.5103 34.2999 10.0693 34.7899 9.99581C35.2554 9.92231 35.7209 10.2653 35.7944 10.7798C36.0149 12.1028 36.2109 13.4258 36.4314 14.7733C36.5049 15.2388 36.2109 15.7043 35.7209 15.7778C34.5939 15.9493 33.4669 16.1208 32.3399 16.2923C32.1439 16.3168 31.9479 16.3658 31.7519 16.3903C31.2864 16.4638 30.8454 16.1453 30.7474 15.6798C30.6494 15.2388 30.9189 14.7733 31.3844 14.6508C31.7274 14.5528 32.0704 14.5283 32.4379 14.4793C32.7564 14.4303 33.0994 14.3813 33.4669 14.2833C33.3934 14.2343 33.3199 14.2098 33.2709 14.1608C31.6049 12.7888 29.7184 11.8578 27.6114 11.3923C25.9944 11.0248 24.3774 10.9268 22.7359 11.1718C19.1834 11.6618 16.2679 13.2298 13.9649 15.9738C12.3234 17.9583 11.3189 20.2123 10.9514 22.7603C10.6329 25.0388 10.8534 27.2683 11.6374 29.4243C11.7354 29.7183 11.7844 29.9878 11.6129 30.2818C11.4169 30.6003 11.1474 30.7473 10.7799 30.7228C10.4124 30.6983 10.1184 30.5023 9.99591 30.1348C9.77541 29.4243 9.53041 28.7138 9.35891 28.0033C8.96691 26.4108 8.91791 24.7938 9.08941 23.1768C9.30991 20.9473 9.97141 18.8648 11.0984 16.9538C11.7599 15.8513 12.5194 14.8223 13.4259 13.8913C14.8714 12.4458 16.5129 11.3188 18.3749 10.5348C20.7759 9.50581 23.2504 9.08931 25.8474 9.30981C28.6159 9.55481 31.1394 10.4613 33.4179 12.0783C33.6629 12.2498 33.9079 12.4458 34.1529 12.6173C34.1774 12.6173 34.2264 12.6418 34.2999 12.6663Z" fill="#575757"/>
<path d="M15.2882 37.8525C15.3372 38.0975 15.3617 38.3425 15.4107 38.563C15.4597 38.857 15.5087 39.1755 15.5332 39.494C15.5822 39.984 15.2392 40.425 14.7737 40.4985C14.3082 40.572 13.8427 40.229 13.7692 39.739C13.5732 38.416 13.3527 37.0685 13.1567 35.7455C13.0832 35.2555 13.3772 34.839 13.8672 34.7655C14.5532 34.643 15.2147 34.545 15.9007 34.4225C16.5132 34.3245 17.1502 34.2265 17.7627 34.1285C18.2772 34.055 18.6937 34.251 18.8407 34.692C19.0122 35.182 18.7917 35.6475 18.3017 35.7945C17.9832 35.8925 17.6157 35.9415 17.2727 35.9905C16.9052 36.064 16.5377 36.113 16.1457 36.162C16.1947 36.211 16.2437 36.2355 16.2682 36.26C17.0767 36.8725 17.9097 37.485 18.8407 37.9505C20.2862 38.6365 21.7807 39.1265 23.3977 39.3225C25.9457 39.641 28.3712 39.249 30.6987 38.22C32.2177 37.534 33.5652 36.6275 34.7412 35.4515C35.9907 34.202 36.9707 32.781 37.6812 31.164C38.2937 29.694 38.6857 28.175 38.7592 26.5825C38.8572 24.696 38.6122 22.8585 37.9507 21.07C37.7057 20.433 37.9752 19.9185 38.5632 19.7715C38.9552 19.6735 39.3962 19.894 39.5432 20.335C39.7882 21.021 40.0087 21.707 40.1802 22.4175C40.5722 24.0835 40.6457 25.774 40.4497 27.4645C40.1557 30.1105 39.2492 32.5115 37.6812 34.692C36.7747 35.966 35.7212 37.0685 34.4962 37.9995C32.7077 39.347 30.7232 40.2535 28.5672 40.7925C26.8032 41.2335 25.0392 41.307 23.2507 41.111C20.4822 40.817 18.0077 39.7635 15.7537 38.122C15.6067 37.9995 15.4597 37.9015 15.2882 37.8035C15.3127 37.828 15.2882 37.828 15.2882 37.8525Z" fill="#575757"/>
<path d="M26.1662 27.5625C26.1662 27.832 26.0192 28.1505 25.7987 28.42C25.7497 28.4935 25.7007 28.5915 25.7007 28.665C25.6762 28.8855 25.7007 29.106 25.7007 29.302C25.6762 29.8165 25.2842 30.2085 24.7697 30.2085C24.2797 30.2085 23.8877 29.8165 23.8877 29.302C23.8877 29.2285 23.8877 29.1305 23.8877 29.057C23.8877 28.763 23.8632 28.4935 23.6672 28.2485C23.2997 27.783 23.3732 27.146 23.7162 26.6805C24.0837 26.215 24.6962 26.0435 25.2597 26.2395C25.7742 26.3865 26.1662 26.9255 26.1662 27.5625Z" fill="#575757"/>
</svg>
