<svg width="46" height="48" viewBox="0 0 46 48" fill="none" xmlns="http://www.w3.org/2000/svg">
<path d="M20.316 18.0602L0.185709 36.8638C0.0682754 36.9723 0.00273102 37.1268 0 37.2868C0 37.4468 0.0600824 37.6013 0.174785 37.7152L3.39192 40.9093C3.50662 41.0231 3.66229 41.0855 3.82342 41.0828C3.98455 41.0828 4.13749 41.0123 4.24946 40.8957L23.1918 20.9126C23.413 20.6795 23.4075 20.3134 23.1781 20.0884L21.1463 18.0711C20.9196 17.846 20.5509 17.8379 20.316 18.0575V18.0602Z" fill="#FE5100"/>
<path d="M39.6652 40.4945C39.5424 40.3725 39.3785 40.3047 39.2064 40.3047H19.2782C19.1062 40.3047 18.9396 40.3752 18.8194 40.4945C18.6992 40.6165 18.6282 40.7819 18.6282 40.95V43.1544H16.3533V45.3588H12.8876V47.5631H45.5943V45.3588H42.1286V43.1544H39.8537V40.95C39.8537 40.7792 39.7854 40.6165 39.6625 40.4945H39.6652Z" fill="#FE5100"/>
<path d="M17.3502 11.9978L28.9215 23.4861L36.8469 15.6176C36.9261 15.5389 37.0135 15.4766 37.1009 15.4115L25.4831 3.87988C25.4176 3.96665 25.3548 4.05341 25.2756 4.12933L17.3502 11.9978Z" fill="#FE5100"/>
<path d="M37.1009 15.4141C37.0135 15.4791 36.9261 15.5415 36.8469 15.6201L28.9215 23.4886L28.8095 23.5998C27.8564 24.5461 27.8564 26.078 28.8095 27.0216C29.7626 27.9652 31.3057 27.9652 32.2561 27.0216L40.2934 19.0419C41.2466 18.0957 41.2466 16.5664 40.2934 15.6201C39.4222 14.7525 38.0567 14.6901 37.1009 15.4141V15.4141Z" fill="#FFB491"/>
<path d="M21.829 0.707487L13.7916 8.68715C12.8385 9.63343 12.8385 11.1654 13.7916 12.1089C14.742 13.0525 16.285 13.0525 17.2382 12.1089L17.3501 11.9978L25.2755 4.12928C25.3547 4.05065 25.4176 3.96388 25.4831 3.87983C26.2123 2.93084 26.1495 1.57785 25.2755 0.710199C24.3252 -0.236082 22.7794 -0.236082 21.829 0.710199V0.707487Z" fill="#FFB491"/>
</svg>
